<svg version="1.1" id="Layer_1" xmlns="http://www.w3.org/2000/svg" xmlns:xlink="http://www.w3.org/1999/xlink" x="0px" y="0px"
	 width="100%" viewBox="0 0 630 630" enable-background="new 0 0 630 630" xml:space="preserve">
<path fill="#010000" opacity="1.000000" stroke="none" 
	d="
M352.000000,631.000000 
	C234.666687,631.000000 117.833374,631.000000 1.000047,631.000000 
	C1.000031,421.000061 1.000031,211.000122 1.000016,1.000132 
	C210.999893,1.000088 420.999786,1.000088 630.999756,1.000044 
	C630.999878,210.999863 630.999878,420.999725 630.999939,630.999756 
	C538.166687,631.000000 445.333344,631.000000 352.000000,631.000000 
M227.923965,224.058151 
	C227.923965,224.058151 227.786392,224.095993 228.041031,224.702209 
	C229.366913,226.112473 230.692795,227.522720 232.508667,229.470016 
	C235.449768,230.542160 235.550613,228.793701 236.081299,226.504410 
	C237.088684,222.158905 238.632950,218.111252 243.621475,216.300781 
	C247.643753,214.841003 251.506363,212.755249 255.152069,210.485123 
	C261.471741,206.549927 267.136353,201.244156 273.868469,198.370331 
	C282.329102,194.758591 290.201111,188.597443 300.307098,189.785019 
	C300.870087,189.851196 301.483154,189.214142 302.111023,189.052200 
	C304.973572,188.313889 307.816162,187.374176 310.729645,186.989395 
	C314.246613,186.524918 319.402710,181.688492 319.308472,178.091049 
	C318.977509,165.456650 318.555908,152.823532 318.003784,140.197128 
	C317.909058,138.030365 317.008240,135.898834 316.300446,133.022171 
	C311.809814,140.701981 304.246429,143.416428 296.237640,141.713730 
	C293.331390,141.095825 290.089111,142.058594 287.000153,142.300140 
	C286.971100,142.761597 286.942047,143.223053 286.912994,143.684509 
	C287.950958,144.523285 288.988953,145.362045 290.026917,146.200806 
	C289.889313,146.643982 289.751709,147.087158 289.614105,147.530334 
	C286.857361,147.049728 284.100616,146.569138 281.169525,146.058151 
	C277.717957,150.833023 268.811218,154.919647 262.095276,154.511505 
	C265.135925,148.547073 259.158417,150.268417 258.411682,149.396072 
	C255.816345,151.386795 253.869873,153.135345 251.661240,154.440063 
	C250.851089,154.918655 249.420120,154.346375 248.272354,154.253464 
	C248.374084,153.112518 248.131104,151.781021 248.637970,150.864029 
	C250.688873,147.153809 250.156616,140.636597 247.033035,137.090332 
	C240.692749,142.176117 238.057419,148.464569 240.800659,157.996368 
	C236.725113,153.341782 234.186584,154.690643 231.227600,158.124054 
	C229.528519,158.194580 227.769577,158.013275 226.145477,158.399277 
	C224.108459,158.883438 221.027145,159.316544 220.419434,160.675980 
	C218.412415,165.165649 217.316345,170.062515 214.995743,174.917389 
	C212.941086,175.100952 210.886414,175.284500 208.082794,175.268585 
	C206.380356,175.657715 204.542587,175.767044 203.010376,176.508102 
	C201.171997,177.397263 199.746048,179.429886 197.873459,179.900253 
	C193.203705,181.073196 192.881897,183.385330 194.720795,187.492340 
	C194.395340,187.862167 194.069885,188.231995 193.197998,188.144821 
	C188.725815,183.685165 188.790451,183.725845 185.738983,189.198334 
	C184.968033,190.580917 183.455673,191.529572 182.513229,192.842194 
	C181.316620,194.508759 179.565674,196.288071 179.438080,198.115417 
	C179.059174,203.541656 176.886566,207.016739 171.489410,208.587036 
	C170.119766,208.985550 168.399139,210.674637 168.159592,212.007828 
	C167.330429,216.622894 167.620636,221.553497 162.578934,224.398499 
	C164.062317,225.800385 165.176025,226.852890 167.507309,229.056091 
	C162.679031,227.730927 159.698898,227.584473 159.865784,232.382874 
	C159.887390,233.004135 158.333450,233.560089 157.825043,234.349594 
	C157.153381,235.392609 156.089905,236.916428 156.420105,237.745697 
	C157.920959,241.514999 155.454483,243.196182 152.566971,245.010147 
	C152.191971,244.976929 151.816986,244.943695 151.412491,244.195389 
	C152.258057,241.828613 153.103622,239.461853 153.920486,236.530197 
	C151.709793,235.002060 149.499084,233.473907 147.033844,231.303329 
	C145.092209,231.211838 143.150574,231.120361 140.333298,230.987610 
	C140.655655,229.498993 141.086365,227.510025 141.655853,224.880157 
	C139.739410,224.466248 137.774185,224.041794 135.808945,223.617355 
	C135.855698,225.485123 135.686050,227.392654 136.019745,229.207672 
	C136.273041,230.585419 137.405594,231.789474 137.728729,233.168793 
	C138.523163,236.559937 139.626999,240.014755 139.582657,243.430679 
	C139.530991,247.409363 138.389877,251.373917 137.638641,255.837082 
	C136.823669,255.996445 135.243576,256.305450 134.274399,256.494965 
	C130.650299,261.731476 130.482162,266.856232 131.534637,272.675415 
	C132.272644,276.755890 136.303665,281.636810 130.998215,285.795959 
	C130.615204,286.096222 131.262268,287.885681 131.618286,288.917969 
	C132.426361,291.260803 133.351593,293.563263 133.774994,296.356903 
	C133.479446,296.680176 133.183884,297.003479 132.228989,297.049225 
	C122.789879,292.200073 121.632256,292.100098 117.870369,296.510712 
	C120.709137,296.955811 123.184547,297.269226 125.625816,297.754425 
	C127.116364,298.050629 129.647385,298.377625 129.801193,299.098389 
	C130.187805,300.910004 129.520889,302.957855 129.217773,304.901886 
	C128.934082,306.721313 128.205429,308.551758 128.315125,310.337860 
	C128.723984,316.995270 129.461487,323.631805 129.939514,330.285919 
	C130.131409,332.956940 129.971100,335.653229 129.971100,339.013550 
	C132.397125,337.362213 134.511871,335.922760 136.983002,334.240692 
	C137.162674,336.185883 137.323685,337.928833 137.641617,339.987946 
	C137.641617,339.987946 137.988251,339.921265 137.409119,339.988586 
	C137.244553,340.315369 137.080002,340.642151 136.834229,340.598816 
	C136.834229,340.598816 136.461990,340.527954 135.951004,340.844360 
	C135.290573,342.565521 134.630142,344.286682 133.884369,346.768921 
	C134.934830,348.718018 136.235458,350.575165 136.991898,352.632385 
	C140.048126,360.944183 143.705521,369.140930 145.676605,377.716736 
	C147.759445,386.778931 155.129761,393.849182 154.774963,403.650421 
	C154.759842,404.067780 155.042847,404.830658 155.285965,404.873749 
	C161.679535,406.006622 158.189255,413.291260 162.607605,415.628021 
	C159.849243,414.538971 157.643631,412.292511 155.214340,412.016846 
	C153.087479,411.775482 150.709320,413.748413 148.442169,414.743195 
	C149.484116,416.125092 150.286255,418.355835 151.612717,418.730530 
	C155.672379,419.877380 159.933502,420.311127 162.769852,420.793365 
	C164.712189,422.057434 166.021896,422.595551 166.858154,423.548950 
	C167.588074,424.381073 168.279556,425.754242 168.130676,426.761658 
	C167.503677,431.004486 165.809204,435.282623 170.187805,438.713318 
	C170.667938,439.089508 170.167130,440.543213 170.442398,441.393158 
	C170.946579,442.949982 171.314056,444.833984 172.413147,445.856049 
	C174.672943,447.957428 177.462189,449.475525 179.878983,451.425262 
	C183.323883,454.204407 186.581589,454.580658 190.205353,451.657166 
	C192.387558,449.896637 194.934662,448.588470 197.768677,447.656738 
	C197.919617,447.849060 198.070557,448.041351 197.862076,448.793213 
	C194.357986,452.113678 190.853897,455.434143 186.729324,459.342590 
	C194.937515,460.730255 204.205353,456.727875 205.982956,466.156250 
	C221.683823,468.824432 231.518494,479.606964 244.366333,485.734253 
	C237.820755,489.547607 232.906570,485.627228 227.824005,484.252136 
	C227.059113,485.729675 226.428131,486.948517 225.908630,487.952026 
	C223.975067,487.134216 222.374634,485.840607 220.856689,485.931030 
	C216.324799,486.201080 211.765427,486.746063 207.340149,487.735474 
	C205.340546,488.182526 203.641205,489.949097 201.785477,491.084076 
	C201.434402,491.298737 200.988297,491.358063 200.508514,491.514313 
	C200.135880,489.966217 199.810837,488.615845 199.462524,487.168823 
	C196.100266,487.618530 193.062164,488.024902 190.822311,488.324493 
	C190.341293,491.205048 189.938049,493.619873 189.766586,494.646637 
	C186.155060,493.507629 182.950195,492.055420 179.602066,491.547516 
	C174.934692,490.839417 170.125702,490.345703 165.441406,490.674133 
	C160.917694,490.991333 155.059814,488.550201 152.860245,495.670227 
	C149.149612,493.397217 145.839508,491.369537 142.515900,489.333618 
	C141.189102,494.689789 139.880997,495.050537 134.454208,494.471161 
	C130.372009,494.035339 125.511124,489.165314 123.000206,494.754211 
	C119.436104,494.754211 116.853752,494.754211 113.311699,494.754211 
	C109.728653,491.368408 109.521538,491.374725 105.770683,494.955719 
	C102.455643,493.962494 99.843773,493.179962 96.723824,492.245178 
	C97.292534,493.978302 97.633453,495.017212 98.029984,496.034058 
	C98.029984,496.034058 98.051498,495.978210 97.285477,495.934692 
	C93.215508,495.366760 89.418373,491.905609 84.690041,494.267487 
	C85.700188,495.809723 86.375900,496.841339 87.102829,498.414246 
	C87.069656,499.315369 87.036484,500.216492 86.754730,501.628601 
	C86.251343,506.324188 90.451836,506.723236 93.087540,507.664093 
	C98.409271,509.563843 104.048531,510.574066 110.136948,512.047913 
	C111.542625,512.524597 112.932281,513.056763 114.356743,513.468445 
	C120.934296,515.369568 127.200623,522.001404 134.421646,514.851074 
	C134.462524,514.810547 134.930771,515.201660 135.088882,515.895447 
	C136.502075,520.565857 139.047668,515.979736 141.438400,517.052673 
	C142.953598,517.390808 144.468811,517.728943 146.682510,517.985046 
	C148.222977,518.705811 149.763443,519.426575 151.532639,520.254333 
	C152.492752,519.561096 153.634644,518.736633 155.641403,518.200378 
	C157.649689,519.666809 159.660355,521.130066 161.665253,522.601135 
	C162.635422,523.312927 163.594757,524.039612 164.559006,524.759521 
	C165.301956,523.750000 166.564560,522.799805 166.687805,521.719604 
	C167.021759,518.792969 166.872055,515.811157 167.131165,512.256165 
	C167.721252,511.326935 168.311340,510.397705 168.888199,509.489288 
	C170.630417,510.444916 172.063248,511.230865 173.496063,512.016785 
	C173.678482,511.786224 173.860901,511.555603 174.043335,511.325012 
	C173.031204,509.625031 172.019089,507.925049 171.006973,506.225037 
	C171.348785,505.698639 171.690582,505.172272 172.032394,504.645874 
	C173.723297,505.426880 176.199356,505.754120 176.961060,507.072113 
	C179.460846,511.397583 182.529694,511.805939 186.545486,509.650909 
	C186.622360,509.609619 186.933807,510.005493 187.316635,510.369202 
	C186.535416,511.320648 185.786148,512.233154 184.733780,513.514771 
	C187.441360,513.981689 189.621445,514.357666 192.235291,514.808411 
	C191.666046,512.944519 191.297531,511.737823 190.929001,510.531189 
	C191.467957,510.227356 192.006897,509.923523 192.545853,509.619720 
	C193.513336,511.228546 194.493500,512.829895 195.442902,514.449341 
	C195.902237,515.232910 196.428360,516.789246 196.712967,516.741333 
	C200.834335,516.046997 202.973251,519.629089 206.110062,520.825745 
	C211.015030,522.696899 216.276825,523.665100 221.424744,524.854492 
	C224.336823,525.527283 227.888107,524.472534 229.420074,528.435669 
	C229.648071,529.025513 231.412201,529.655273 232.031067,529.358887 
	C236.504059,527.217163 240.807068,524.718140 245.294250,522.609619 
	C246.805099,521.899658 248.693756,521.993774 250.409744,521.720398 
	C250.476654,522.174316 250.543564,522.628235 250.610474,523.082214 
	C249.703964,523.798462 248.797455,524.514771 247.208542,525.770264 
	C249.255615,525.890625 250.725891,526.446106 251.451263,525.938049 
	C254.495071,523.806335 260.402557,528.933044 261.578857,521.963501 
	C261.622986,521.702026 264.010834,521.757324 265.281250,521.895996 
	C265.417297,521.910828 265.383392,523.482300 265.443939,524.627441 
	C267.537231,524.011841 269.314728,523.489197 271.525116,522.839233 
	C271.445801,524.538574 271.396027,525.604797 271.332642,526.962830 
	C272.463501,526.962830 273.440033,527.029419 274.400238,526.933044 
	C274.840576,526.888855 275.248779,526.524719 275.652008,526.315796 
	C274.224854,520.312500 275.515106,519.160828 281.390381,520.195801 
	C283.731842,520.608337 286.286407,519.811340 289.474365,519.491699 
	C288.384979,517.737122 287.890045,517.087158 287.552612,516.363708 
	C286.975494,515.126221 285.797729,513.549133 286.171082,512.660034 
	C286.555145,511.745575 288.443909,511.249634 289.758728,510.974915 
	C296.908844,509.480927 303.535858,511.187561 309.932861,514.393250 
	C315.364838,517.115295 315.917542,516.740845 316.084839,510.470184 
	C316.324493,501.487701 316.574249,492.504425 316.683502,483.519836 
	C316.784119,475.245789 316.704895,466.969513 316.704895,458.366302 
	C311.083679,458.093719 306.029419,457.958801 301.001312,457.522644 
	C299.831024,457.421173 298.689026,456.379211 297.638733,455.624207 
	C294.625031,453.457916 291.894196,450.772675 288.638489,449.093384 
	C280.719177,445.008636 272.267456,441.889526 264.592651,437.416412 
	C257.202820,433.109375 250.427460,427.712860 243.564011,422.553101 
	C240.233154,420.049072 237.299103,420.086914 234.010178,422.363861 
	C231.280380,424.253662 228.412964,425.944733 225.130661,427.174225 
	C224.971573,426.991394 224.812485,426.808533 225.037689,426.084412 
	C227.228424,424.048798 229.395538,421.987030 231.615479,419.983734 
	C234.816833,417.094879 234.574265,414.579315 231.340805,411.715698 
	C227.697403,408.488983 224.207413,405.030975 221.041168,401.338745 
	C217.326309,397.006714 213.748566,392.499176 210.631943,387.727722 
	C207.293076,382.615997 204.231873,377.262451 201.641525,371.736908 
	C198.012451,363.995667 193.146088,356.797516 192.782669,347.633759 
	C192.557495,341.955688 191.646454,335.700348 184.719604,333.250397 
	C183.952484,332.979065 183.514755,331.776398 183.618073,330.587372 
	C186.601212,331.657104 189.584366,332.726868 192.567505,333.796600 
	C193.058182,333.571991 193.548859,333.347382 194.039536,333.122772 
	C188.109772,323.090515 186.416290,312.373962 187.853012,300.632385 
	C188.212524,298.377167 188.572021,296.121979 189.333191,293.308563 
	C190.081131,292.438843 190.829071,291.569122 191.737045,290.343811 
	C191.831161,290.091766 191.899765,289.832947 191.793015,288.726837 
	C192.125809,285.469147 191.583038,281.766266 192.967514,279.043274 
	C196.184647,272.715698 200.189636,266.765381 204.164917,260.857056 
	C205.989151,258.145752 210.162140,256.003174 210.333527,253.408722 
	C210.658005,248.497101 213.948700,245.857681 215.952606,242.232925 
	C218.719269,237.228394 222.773438,235.012054 228.518555,235.369919 
	C229.225464,235.413956 230.900375,232.226410 230.741333,232.084030 
	C225.174500,227.100830 222.743774,218.857346 214.340378,216.743484 
	C209.989365,215.649002 205.890045,213.553925 201.677017,211.910904 
	C201.784470,211.582520 201.891907,211.254135 201.999344,210.925766 
	C205.349686,211.687332 208.700012,212.448914 212.548004,213.395233 
	C214.324478,213.274384 216.100952,213.153519 218.450531,213.333023 
	C219.498077,214.385498 220.545624,215.437988 221.596237,216.370956 
	C221.596237,216.370956 221.476715,216.367905 221.765411,216.976990 
	C223.173279,218.657974 224.581146,220.338959 226.005035,221.997299 
	C226.005035,221.997299 225.979935,222.008331 226.201263,222.571655 
	C226.788101,223.113022 227.374939,223.654373 227.923965,224.058151 
M325.669342,465.902527 
	C327.367950,467.151672 328.997040,468.515411 330.792358,469.605194 
	C331.799011,470.216125 333.756409,471.023956 334.132599,470.633179 
	C337.325562,467.316711 340.253174,463.744720 343.999115,459.390717 
	C340.480835,459.172974 338.199768,459.173004 335.964233,458.853882 
	C333.701263,458.530853 331.477753,457.466339 329.247131,457.495972 
	C326.248413,457.535797 323.963074,458.630859 325.770569,462.533295 
	C326.174774,463.406036 325.298126,464.872070 324.396881,466.237335 
	C323.185181,465.539673 321.973511,464.842010 320.380615,463.924866 
	C320.380615,470.711578 320.380615,476.968842 320.380615,483.311615 
	C322.596771,483.131287 324.252350,482.996582 325.483521,483.493744 
	C318.740173,488.661591 317.403961,495.590302 318.696747,503.539520 
	C319.063660,505.795685 318.471954,508.190582 318.578369,510.510010 
	C318.763123,514.536987 319.149292,518.554810 319.502625,523.264709 
	C322.470123,522.129883 325.367004,521.907471 325.888367,520.677856 
	C329.094086,513.116882 335.870209,514.962769 341.606750,514.304565 
	C343.963318,514.034180 346.427124,514.699036 348.676941,514.921997 
	C352.271149,500.951538 349.126038,489.374847 337.444458,480.776917 
	C336.374878,479.989716 334.399323,479.820801 333.046814,480.163483 
	C330.543549,480.797729 328.190125,482.023285 325.357880,482.184052 
	C327.280945,477.227539 327.108002,470.532806 325.669342,465.902527 
M429.345306,415.128326 
	C429.096680,415.777435 428.521179,416.501068 428.649506,417.064270 
	C430.082489,423.352448 431.543701,429.637177 433.193970,435.870758 
	C433.596436,437.390961 434.360413,439.397766 435.562805,440.028809 
	C443.035950,443.950836 451.373138,444.183685 460.284576,446.536926 
	C459.075592,441.352966 458.224731,437.704529 458.000183,434.052917 
	C458.626434,434.041962 459.252655,434.030975 460.015533,434.833618 
	C460.559174,439.415436 461.430939,443.837799 465.742920,447.052734 
	C463.550598,440.946503 468.996582,442.484070 471.652679,440.992371 
	C470.372650,439.564087 469.391815,438.469696 467.471283,436.326752 
	C470.584778,437.032440 472.368500,437.436737 472.717133,437.515747 
	C476.033173,434.492218 478.752686,432.376373 481.008575,429.846985 
	C483.018097,427.593872 484.781342,425.020630 486.164276,422.336700 
	C487.630646,419.490814 488.924347,417.040436 493.670532,419.503235 
	C492.500458,417.047150 491.862732,415.708557 491.047272,413.996918 
	C495.254608,411.269836 497.056183,406.205475 501.713593,403.760864 
	C503.051056,403.058807 504.199890,401.025940 504.467865,399.439819 
	C505.275513,394.659027 505.536072,389.788239 506.190033,384.976990 
	C506.307129,384.115387 507.139740,382.861908 507.884949,382.652008 
	C513.954956,380.942169 511.989868,376.572021 511.795929,372.190247 
	C511.932831,372.044220 512.069702,371.898163 512.757263,371.590790 
	C513.141418,370.816254 513.990479,369.933441 513.839111,369.283691 
	C511.957947,361.209106 516.909424,352.869995 524.312744,351.658478 
	C523.710510,348.877563 521.768860,345.207397 522.866760,343.546661 
	C524.050781,341.755707 528.327820,342.296844 530.776978,340.950256 
	C532.313293,340.105530 533.968201,337.555511 533.804871,335.950134 
	C533.488281,332.837860 530.806702,329.728149 531.126709,326.841461 
	C531.696411,321.703217 529.147217,321.319916 525.414856,321.123566 
	C513.132751,320.477570 500.859802,319.652252 488.575745,319.051422 
	C483.889191,318.822174 479.182007,319.014130 473.458588,319.014130 
	C475.440521,321.984711 476.634460,323.774261 478.615997,326.744232 
	C474.220367,324.575775 471.116852,323.044739 466.561615,320.797546 
	C466.561615,328.254761 466.561615,334.367371 466.561615,340.664337 
	C461.258453,341.788391 458.528687,348.216370 460.868866,354.193176 
	C459.518555,356.686890 458.410614,358.540894 457.482300,360.480835 
	C453.596466,368.600983 450.309357,377.067505 445.762573,384.795013 
	C441.029572,392.838989 435.200928,400.253510 429.634583,407.782990 
	C427.834381,410.218079 427.137817,412.052979 430.007141,414.450989 
	C430.005585,414.618225 430.004059,414.785492 429.345306,415.128326 
M349.149536,145.946930 
	C348.791748,145.885803 348.433960,145.824677 348.598846,145.147690 
	C353.525879,138.643082 350.124542,131.570908 350.986542,123.080864 
	C345.722290,124.826904 340.894989,125.130768 338.219299,127.686882 
	C335.636444,130.154266 335.272858,134.944748 334.389465,137.432938 
	C333.813232,135.547348 332.857147,132.418549 331.991180,129.584793 
	C328.650085,130.647263 326.189087,132.024200 323.698303,132.080322 
	C320.110840,132.161133 319.216400,134.330261 319.370483,136.867111 
	C319.973175,146.788574 320.794525,156.701355 321.836182,166.585587 
	C321.963318,167.792374 323.915344,168.806839 325.173859,170.651337 
	C323.108002,174.654968 318.487091,178.206024 322.447235,182.575317 
	C329.851776,182.154968 336.806335,181.385101 343.751007,181.465958 
	C351.497528,181.556122 353.016663,180.581589 352.980316,172.765594 
	C352.955658,167.463486 351.991882,162.104904 352.522186,156.880600 
	C352.935303,152.810486 352.825836,149.338348 349.149536,145.946930 
M427.969299,428.368195 
	C426.585205,423.514313 425.201080,418.660431 423.540894,412.838287 
	C421.008942,414.728943 419.474854,415.643616 418.224365,416.851837 
	C414.564392,420.388123 411.527649,424.850250 407.330750,427.497437 
	C394.624725,435.511841 384.002258,446.887177 369.125763,451.429413 
	C366.805695,452.137817 364.567200,453.113434 362.087891,454.041504 
	C363.559326,455.818756 364.788208,457.303040 366.017090,458.787323 
	C363.597839,458.745636 361.937561,457.874115 360.217194,457.144135 
	C354.745850,454.822601 352.045258,456.681366 352.180206,462.674194 
	C352.292267,467.651550 352.641907,472.629822 352.577271,477.603668 
	C352.424072,489.394318 352.117523,501.183380 351.805878,512.971313 
	C351.716156,516.364685 353.275238,518.272278 356.521118,518.950256 
	C361.155396,519.918274 365.806152,520.816711 370.415009,521.894104 
	C374.267731,522.794678 378.204315,525.051208 381.859131,524.622437 
	C385.864136,524.152588 389.152283,525.001343 392.734161,526.037231 
	C394.914612,526.667786 397.289062,526.627502 400.415253,526.984314 
	C399.293396,524.087708 398.609131,522.320984 397.861633,520.391052 
	C400.540497,520.587708 403.114838,520.350037 405.389374,521.065491 
	C407.594208,521.759033 409.490936,523.432007 411.523010,524.674805 
	C410.427917,526.072937 409.332825,527.471069 407.915802,529.280212 
	C411.712494,529.565002 415.455872,530.152954 419.183502,530.066040 
	C429.076324,529.835388 438.959320,529.175720 448.852203,528.957214 
	C455.088348,528.819580 461.337280,529.322754 467.576477,529.239319 
	C471.115204,529.192017 474.645874,528.540955 478.257019,528.153564 
	C480.161163,528.623779 482.538177,529.965027 484.610352,529.595703 
	C495.157593,527.716187 505.561371,524.968140 516.142761,523.364685 
	C524.258301,522.134949 532.563049,522.153687 541.906372,521.543884 
	C541.426514,518.728149 540.837891,515.273804 540.145386,511.210144 
	C544.995483,516.647156 550.863281,514.758606 556.630188,514.005371 
	C552.843811,512.245972 548.571655,511.623169 545.244568,509.511383 
	C540.071167,506.227661 535.295105,506.557739 530.104797,508.768127 
	C528.641541,509.391296 526.846863,510.336731 525.516113,509.977753 
	C520.048706,508.502991 515.275757,508.902924 511.004303,513.078613 
	C510.053741,514.007874 508.108551,514.165161 506.606689,514.212341 
	C505.247559,514.255005 503.842957,513.313110 502.502808,513.411377 
	C497.415527,513.784424 492.346283,514.403259 487.270294,514.930237 
	C487.137512,514.350220 487.004730,513.770203 486.871948,513.190186 
	C489.368652,512.382080 491.847931,511.514557 494.365631,510.778351 
	C499.673126,509.226318 505.023224,507.816193 510.307983,506.192200 
	C512.172485,505.619232 513.857483,504.013885 515.693909,503.887299 
	C520.141663,503.580841 523.276062,498.427979 528.319153,500.603760 
	C528.529907,500.694702 529.019714,499.878204 529.457581,499.749023 
	C531.239929,499.223389 533.040833,498.744568 534.858032,498.357422 
	C536.426147,498.023346 538.063965,497.977600 539.604614,497.559753 
	C545.287598,496.018463 550.977966,493.278534 556.296570,498.332062 
	C559.158997,494.515015 562.960938,491.254333 564.277649,487.188812 
	C565.636963,482.991394 564.579712,478.011322 564.579712,472.124603 
	C561.459717,476.189453 559.222961,479.103485 557.110657,481.855438 
	C554.840210,481.390533 553.030396,481.019958 550.229858,480.446503 
	C551.676758,482.008759 552.257935,482.636322 552.839172,483.263855 
	C544.683960,480.647858 536.283875,484.921387 528.103943,481.180695 
	C522.088074,478.429596 515.052673,477.834503 508.424042,476.517609 
	C501.996826,475.240723 495.537842,474.001190 489.032928,473.301300 
	C486.600586,473.039551 483.838654,475.206879 481.506744,474.770721 
	C475.659882,473.677307 469.974548,471.723206 464.220886,470.127106 
	C461.792847,469.453583 459.355865,468.812378 456.922943,468.156464 
	C456.794708,468.480896 456.666504,468.805328 456.538269,469.129761 
	C459.163208,471.599365 461.788147,474.069000 465.569244,477.626404 
	C460.866150,478.516449 457.917084,479.328003 454.920654,479.583008 
	C450.248108,479.980652 445.515228,480.395172 440.860870,480.062195 
	C436.766663,479.769257 431.426941,481.570618 428.928986,473.081909 
	C431.058136,471.257355 434.069946,468.676422 436.902069,466.249451 
	C436.486206,466.147827 435.384155,465.878510 434.282074,465.609222 
	C436.156006,463.971619 438.144348,463.529846 440.111755,463.008850 
	C441.176300,462.726929 442.347107,462.517700 443.225159,461.917511 
	C446.962585,459.363007 450.658051,456.739532 454.257629,453.995422 
	C455.332794,453.175781 456.891205,451.706268 456.713226,450.848999 
	C456.486572,449.757172 454.855621,448.525513 453.594910,448.155701 
	C448.650543,446.705536 443.672302,445.156097 438.594299,444.438354 
	C433.777710,443.757538 430.528381,442.438660 430.252747,436.848969 
	C430.125214,434.262848 428.852509,431.733185 427.969299,428.368195 
M524.550842,290.823273 
	C524.480286,289.233521 524.409790,287.643738 524.335815,285.976929 
	C525.585083,286.106628 526.469543,286.198456 529.175110,286.479340 
	C526.915405,282.997742 525.368286,280.672882 523.883606,278.308807 
	C522.591980,276.252228 520.546326,274.259247 520.257507,272.051849 
	C518.777832,260.743988 515.710083,250.322189 506.942902,242.276276 
	C506.176575,241.572983 506.016052,239.197647 506.602783,238.210175 
	C508.924683,234.302368 507.046112,230.474762 504.565765,228.915131 
	C501.247253,226.828400 502.076691,224.027664 501.259613,221.511276 
	C500.762848,219.981354 500.754059,218.292953 500.526031,216.675766 
	C498.976196,217.187958 497.426361,217.700165 496.005035,218.169891 
	C492.729736,214.119537 489.491150,210.114624 486.062805,205.875015 
	C489.951935,198.874557 486.813354,187.319305 475.384918,189.188004 
	C473.132599,189.556290 470.736053,189.099091 468.410706,188.949768 
	C465.632385,188.771362 464.260010,189.529114 464.118042,192.798065 
	C463.847687,199.023209 462.958252,205.221436 462.380005,210.899200 
	C456.269043,211.185303 450.485931,211.340073 444.728149,211.806824 
	C443.280396,211.924179 441.269562,212.664352 440.624176,213.766418 
	C438.166016,217.964005 440.858826,226.386368 445.117737,229.100052 
	C445.920654,229.611679 446.798096,230.269211 447.217987,231.078857 
	C451.985504,240.271332 455.908813,250.015900 461.625214,258.564819 
	C465.990601,265.093292 467.439270,271.272980 467.765015,278.970917 
	C467.960846,283.598602 472.891724,288.050720 469.177979,293.483856 
	C468.994232,293.752655 469.467285,294.411377 469.500610,294.897675 
	C469.655670,297.163025 470.142883,299.489105 469.809631,301.687103 
	C469.109406,306.305847 467.969421,310.857880 466.783295,316.519196 
	C484.796631,317.194641 503.152466,317.882904 522.378784,318.603851 
	C521.139099,315.209900 520.486145,313.422119 519.390259,310.421875 
	C523.698669,312.860260 527.000305,314.728851 530.301941,316.597412 
	C530.656616,316.168274 531.011292,315.739166 531.365967,315.310028 
	C530.675110,313.689026 529.810913,312.116577 529.339844,310.434052 
	C528.820007,308.577789 527.763306,306.099884 528.514099,304.805725 
	C530.693787,301.048615 529.105286,298.683167 526.788696,296.007660 
	C525.750732,294.808777 525.328491,293.076752 524.550842,290.823273 
M434.339600,221.098083 
	C435.540924,222.768280 436.742249,224.438492 437.943573,226.108688 
	C438.704498,221.781235 438.522644,217.593216 438.254669,213.410706 
	C438.077423,210.644745 438.847443,208.949280 442.048706,208.952805 
	C446.506531,208.957703 450.996521,208.978104 455.405396,208.440048 
	C456.970428,208.249069 459.261261,206.690826 459.626373,205.329254 
	C460.806946,200.926407 461.707367,196.337219 461.828217,191.796219 
	C461.927155,188.078735 462.925781,186.837830 466.686127,186.872223 
	C471.074188,186.912384 471.624939,185.446167 469.136444,181.753235 
	C468.406342,180.669769 467.525238,179.688065 466.713348,178.659744 
	C466.527130,179.142365 466.340881,179.625000 466.154633,180.107620 
	C464.773346,179.707886 462.222626,179.382095 462.191956,178.896957 
	C461.891388,174.143600 462.010773,169.363678 462.010773,165.309799 
	C455.277710,161.710037 455.356903,169.182877 453.053436,170.303528 
	C448.982666,167.761978 445.800781,165.775391 442.342346,163.616150 
	C442.342346,162.668121 442.342346,161.131699 442.342346,159.266220 
	C436.966766,162.536804 436.665070,155.892105 432.979034,155.217972 
	C432.427460,156.136902 431.809998,157.165619 431.103485,158.342712 
	C428.621826,157.253372 425.030426,157.688828 425.703064,153.223648 
	C425.732635,153.027084 422.841827,151.811630 421.563721,152.119247 
	C419.013763,152.732986 416.643768,154.044769 414.755554,151.546799 
	C416.168518,148.951447 417.358643,146.765381 418.997559,143.754990 
	C415.248749,145.349258 412.415741,147.736771 410.252594,147.235229 
	C405.287079,146.083923 400.648071,143.524551 396.406982,141.757782 
	C394.806946,143.035034 393.623749,144.670227 392.298981,144.794388 
	C391.414551,144.877274 390.460144,142.636368 389.297028,141.750534 
	C388.046722,140.798294 386.576202,140.040405 385.088470,139.524551 
	C383.890503,139.109207 382.281158,139.582809 381.270142,138.972824 
	C373.003723,133.985428 362.150452,131.863419 359.844269,120.090378 
	C359.817291,119.952553 359.279205,119.914848 357.519165,119.418617 
	C356.370300,141.729309 355.239471,163.689743 354.087341,186.063599 
	C355.887817,185.714325 356.449890,185.756683 356.815521,185.509003 
	C358.737000,184.207306 358.752350,179.630157 363.151184,182.555573 
	C365.422272,184.065964 369.665710,183.135635 371.344635,184.900192 
	C374.656281,188.380783 377.250153,188.556030 380.273010,185.529312 
	C387.241669,189.660187 393.558258,194.620682 400.727661,197.294876 
	C407.231750,199.720932 413.296478,202.395294 418.539978,206.815308 
	C423.788605,211.239655 428.833771,215.905350 434.339600,221.098083 
M349.264282,473.964478 
	C349.226807,472.804352 349.363617,471.603912 349.107239,470.494385 
	C348.795319,469.144531 348.152252,467.871216 347.652435,466.564789 
	C346.342468,467.143036 344.852936,467.488617 343.752258,468.338074 
	C337.527069,473.142456 337.514496,476.333923 343.449005,481.353699 
	C345.140686,482.784668 346.684723,484.390167 349.280090,486.846527 
	C349.280090,482.046051 349.280090,478.436157 349.264282,473.964478 
M180.121902,520.313538 
	C180.868881,521.183167 181.833389,522.911316 182.328278,522.785889 
	C186.109695,521.827820 189.799591,520.508423 193.517944,519.301453 
	C193.522400,518.848022 193.526840,518.394592 193.531296,517.941162 
	C187.301392,517.382324 181.071503,516.823547 174.841599,516.264709 
	C174.839722,515.888000 174.837845,515.511230 174.835953,515.134521 
	C173.551880,516.035583 172.267792,516.936646 170.983719,517.837708 
	C170.998215,518.364441 171.012726,518.891235 171.027237,519.417969 
	C173.860992,519.615662 176.694763,519.813354 180.121902,520.313538 
M266.834198,124.987648 
	C265.980225,124.978531 264.584290,124.639275 264.357239,125.012032 
	C262.366852,128.279617 260.585083,131.674255 258.572510,135.338867 
	C264.660767,137.806427 265.550720,132.633743 267.824371,130.306290 
	C268.469757,129.645630 267.291260,127.203300 266.834198,124.987648 
M213.140213,478.420349 
	C214.144028,478.508636 215.147827,478.596954 216.151642,478.685242 
	C216.233261,478.356323 216.314880,478.027405 216.396500,477.698486 
	C211.044601,474.746918 205.692719,471.795319 200.340820,468.843750 
	C199.948578,469.558014 199.556335,470.272308 199.164093,470.986572 
	C203.593185,473.449341 208.022263,475.912109 213.140213,478.420349 
M269.270996,143.731064 
	C268.671326,141.090164 267.049866,139.869904 264.646606,141.356705 
	C262.391449,142.751862 262.324707,144.858963 264.429352,146.651764 
	C266.044922,148.027893 267.803589,149.236038 269.498596,150.518890 
	C269.410706,148.638474 269.320892,146.758148 269.238495,144.877487 
	C269.231415,144.715561 269.273499,144.551453 269.270996,143.731064 
M278.038483,141.201004 
	C283.763519,142.275009 285.138977,136.781342 288.713196,134.528488 
	C285.824158,134.498734 283.140961,134.772812 280.527832,135.359222 
	C277.726166,135.987930 276.089203,137.530670 278.038483,141.201004 
M298.563232,123.692299 
	C296.103821,124.750664 292.536743,124.423920 292.142883,129.616806 
	C295.145569,128.889282 297.819031,128.759888 299.907745,127.588150 
	C301.955566,126.439362 302.488739,124.396530 298.563232,123.692299 
M158.517181,520.518799 
	C158.517181,520.518799 158.512299,520.485840 158.517181,520.518799 
z"/>
<path fill="#851A1B" opacity="1.000000" stroke="none" 
	d="
M97.974365,496.056152 
	C97.633453,495.017212 97.292534,493.978302 96.723824,492.245178 
	C99.843773,493.179962 102.455643,493.962494 105.770683,494.955719 
	C109.521538,491.374725 109.728653,491.368408 113.311699,494.754211 
	C116.853752,494.754211 119.436104,494.754211 123.000206,494.754211 
	C125.511124,489.165314 130.372009,494.035339 134.454208,494.471161 
	C139.880997,495.050537 141.189102,494.689789 142.515900,489.333618 
	C145.839508,491.369537 149.149612,493.397217 152.860245,495.670227 
	C155.059814,488.550201 160.917694,490.991333 165.441406,490.674133 
	C170.125702,490.345703 174.934692,490.839417 179.602066,491.547516 
	C182.950195,492.055420 186.155060,493.507629 189.766586,494.646637 
	C189.938049,493.619873 190.341293,491.205048 190.822311,488.324493 
	C193.062164,488.024902 196.100266,487.618530 199.462524,487.168823 
	C199.810837,488.615845 200.135880,489.966217 200.508514,491.514313 
	C200.988297,491.358063 201.434402,491.298737 201.785477,491.084076 
	C203.641205,489.949097 205.340546,488.182526 207.340149,487.735474 
	C211.765427,486.746063 216.324799,486.201080 220.856689,485.931030 
	C222.374634,485.840607 223.975067,487.134216 225.908630,487.952026 
	C226.428131,486.948517 227.059113,485.729675 227.824005,484.252136 
	C232.906570,485.627228 237.820755,489.547607 244.366333,485.734253 
	C231.518494,479.606964 221.683823,468.824432 205.982956,466.156250 
	C204.205353,456.727875 194.937515,460.730255 186.729324,459.342590 
	C190.853897,455.434143 194.357986,452.113678 198.342575,448.394592 
	C199.808868,447.170776 200.794647,446.345551 201.901642,445.292358 
	C201.584915,444.943207 201.146988,444.822052 200.420258,444.797852 
	C199.193558,445.622223 198.255676,446.349609 197.317780,447.077026 
	C194.934662,448.588470 192.387558,449.896637 190.205353,451.657166 
	C186.581589,454.580658 183.323883,454.204407 179.878983,451.425262 
	C177.462189,449.475525 174.672943,447.957428 172.413147,445.856049 
	C171.314056,444.833984 170.946579,442.949982 170.442398,441.393158 
	C170.167130,440.543213 170.667938,439.089508 170.187805,438.713318 
	C165.809204,435.282623 167.503677,431.004486 168.130676,426.761658 
	C168.279556,425.754242 167.588074,424.381073 166.858154,423.548950 
	C166.021896,422.595551 164.712189,422.057434 162.769852,420.793365 
	C159.933502,420.311127 155.672379,419.877380 151.612717,418.730530 
	C150.286255,418.355835 149.484116,416.125092 148.442169,414.743164 
	C150.709320,413.748413 153.087479,411.775482 155.214340,412.016846 
	C157.643631,412.292511 159.849243,414.538971 162.607605,415.628021 
	C158.189255,413.291260 161.679535,406.006622 155.285965,404.873749 
	C155.042847,404.830658 154.759842,404.067780 154.774963,403.650421 
	C155.129761,393.849182 147.759445,386.778931 145.676605,377.716736 
	C143.705521,369.140930 140.048126,360.944183 136.991898,352.632385 
	C136.235458,350.575165 134.934830,348.718018 134.220520,346.203644 
	C135.191788,343.934906 135.826889,342.231415 136.461990,340.527954 
	C136.461990,340.527954 136.834229,340.598816 137.050522,340.606018 
	C137.502213,340.377289 137.742691,340.146606 137.988251,339.921265 
	C137.988251,339.921265 137.641617,339.987946 137.950272,339.765015 
	C139.958115,338.884125 141.796860,338.454803 143.327530,337.520691 
	C146.542999,335.558258 149.739273,333.389587 147.180771,328.595581 
	C149.857086,326.385651 152.150864,324.159851 154.801926,322.507172 
	C158.942261,319.926025 163.185532,316.080139 168.233032,321.442749 
	C168.533890,321.715118 168.712082,321.863586 169.172058,322.052917 
	C169.632721,322.134613 169.816605,322.169403 170.066223,322.545776 
	C171.048309,327.233734 174.655594,328.015961 178.521942,329.001770 
	C179.616348,329.050964 180.341980,329.041870 181.039734,329.008911 
	C181.011841,328.985077 180.947174,328.950317 180.927597,329.290924 
	C181.615952,330.106171 182.323883,330.580811 183.006821,331.038879 
	C182.981827,331.022339 182.924271,331.005646 182.924271,331.005646 
	C183.514755,331.776398 183.952484,332.979065 184.719604,333.250397 
	C191.646454,335.700348 192.557495,341.955688 192.782669,347.633759 
	C193.146088,356.797516 198.012451,363.995667 201.641525,371.736908 
	C204.231873,377.262451 207.293076,382.615997 210.631943,387.727722 
	C213.748566,392.499176 217.326309,397.006714 221.041168,401.338745 
	C224.207413,405.030975 227.697403,408.488983 231.340805,411.715698 
	C234.574265,414.579315 234.816833,417.094879 231.615479,419.983734 
	C229.395538,421.987030 227.228424,424.048798 224.560760,426.516632 
	C222.495041,428.465363 220.906219,429.981873 219.203552,431.708496 
	C219.472504,432.028809 219.855301,432.139038 220.535263,432.115601 
	C222.423798,430.562592 224.015167,429.143250 225.606537,427.723877 
	C228.412964,425.944733 231.280380,424.253662 234.010178,422.363861 
	C237.299103,420.086914 240.233154,420.049072 243.564011,422.553101 
	C250.427460,427.712860 257.202820,433.109375 264.592651,437.416412 
	C272.267456,441.889526 280.719177,445.008636 288.638489,449.093384 
	C291.894196,450.772675 294.625031,453.457916 297.638733,455.624207 
	C298.689026,456.379211 299.831024,457.421173 301.001312,457.522644 
	C306.029419,457.958801 311.083679,458.093719 316.704895,458.366302 
	C316.704895,466.969513 316.784119,475.245789 316.683502,483.519836 
	C316.574249,492.504425 316.324493,501.487701 316.084839,510.470184 
	C315.917542,516.740845 315.364838,517.115295 309.932861,514.393250 
	C303.535858,511.187561 296.908844,509.480927 289.758728,510.974915 
	C288.443909,511.249634 286.555145,511.745575 286.171082,512.660034 
	C285.797729,513.549133 286.975494,515.126221 287.552612,516.363708 
	C287.890045,517.087158 288.384979,517.737122 289.474365,519.491699 
	C286.286407,519.811340 283.731842,520.608337 281.390381,520.195801 
	C275.515106,519.160828 274.224854,520.312500 275.652008,526.315796 
	C275.248779,526.524719 274.840576,526.888855 274.400238,526.933044 
	C273.440033,527.029419 272.463501,526.962830 271.332642,526.962830 
	C271.396027,525.604797 271.445801,524.538574 271.525116,522.839233 
	C269.314728,523.489197 267.537231,524.011841 265.443939,524.627441 
	C265.383392,523.482300 265.417297,521.910828 265.281250,521.895996 
	C264.010834,521.757324 261.622986,521.702026 261.578857,521.963501 
	C260.402557,528.933044 254.495071,523.806335 251.451263,525.938049 
	C250.725891,526.446106 249.255615,525.890625 247.208542,525.770264 
	C248.797455,524.514771 249.703964,523.798462 250.610474,523.082214 
	C250.543564,522.628235 250.476654,522.174316 250.409744,521.720398 
	C248.693756,521.993774 246.805099,521.899658 245.294250,522.609619 
	C240.807068,524.718140 236.504059,527.217163 232.031067,529.358887 
	C231.412201,529.655273 229.648071,529.025513 229.420074,528.435669 
	C227.888107,524.472534 224.336823,525.527283 221.424744,524.854492 
	C216.276825,523.665100 211.015030,522.696899 206.110062,520.825745 
	C202.973251,519.629089 200.834335,516.046997 196.712967,516.741333 
	C196.428360,516.789246 195.902237,515.232910 195.442902,514.449341 
	C194.493500,512.829895 193.513336,511.228546 192.545853,509.619720 
	C192.006897,509.923523 191.467957,510.227356 190.929001,510.531189 
	C191.297531,511.737823 191.666046,512.944519 192.235291,514.808411 
	C189.621445,514.357666 187.441360,513.981689 184.733780,513.514771 
	C185.786148,512.233154 186.535416,511.320648 187.316635,510.369202 
	C186.933807,510.005493 186.622360,509.609619 186.545486,509.650909 
	C182.529694,511.805939 179.460846,511.397583 176.961060,507.072113 
	C176.199356,505.754120 173.723297,505.426880 172.032394,504.645874 
	C171.690582,505.172272 171.348785,505.698639 171.006973,506.225037 
	C172.019089,507.925049 173.031204,509.625031 174.043335,511.325012 
	C173.860901,511.555603 173.678482,511.786224 173.496063,512.016785 
	C172.063248,511.230865 170.630417,510.444916 168.888199,509.489288 
	C168.311340,510.397705 167.721252,511.326935 166.782379,512.743591 
	C165.776169,513.625427 165.118744,514.019836 164.461334,514.414246 
	C164.109909,513.247864 163.249695,511.957794 163.497803,510.937164 
	C164.420166,507.143097 165.707062,503.437622 166.861755,499.699951 
	C163.671051,499.790314 159.874161,503.384583 160.186462,506.024506 
	C160.775238,511.001465 160.469437,511.231293 155.445236,509.934052 
	C152.028229,509.051819 148.587662,508.260742 145.157639,507.428925 
	C144.926514,507.962372 144.695389,508.495819 144.464264,509.029266 
	C143.540222,507.768066 142.616196,506.506866 142.352951,506.147583 
	C143.624512,503.391235 144.518250,501.453888 145.411972,499.516541 
	C145.100510,499.380920 144.789032,499.245270 144.477554,499.109619 
	C142.182922,500.467224 139.888290,501.824799 137.751068,503.089264 
	C138.630386,505.413788 139.374420,507.380676 140.142471,509.411072 
	C136.697540,509.411072 133.654709,508.562103 131.486557,509.578674 
	C126.116531,512.096558 122.557869,511.809631 118.811676,507.282532 
	C117.866737,507.766266 116.926712,508.246735 115.749268,508.848572 
	C115.660362,501.899567 114.057594,500.594635 104.767006,499.797974 
	C107.105591,503.785645 118.438797,504.422852 109.556824,511.951172 
	C104.048531,510.574066 98.409271,509.563843 93.087540,507.664093 
	C90.451836,506.723236 86.251343,506.324188 87.183548,501.548218 
	C90.774994,502.272491 93.275658,505.930267 96.848259,504.967896 
	C97.022316,504.402283 97.196381,503.836700 97.370438,503.271088 
	C93.930824,501.471741 90.491219,499.672363 87.051613,497.872986 
	C86.375900,496.841339 85.700188,495.809723 84.690041,494.267487 
	C89.418373,491.905609 93.215508,495.366760 97.723778,496.330078 
	C98.778137,499.086212 99.310799,501.474426 100.072182,503.787384 
	C100.249954,504.327423 101.301483,505.020569 101.775284,504.907410 
	C102.329453,504.775055 103.196426,503.510742 103.059486,503.299103 
	C101.458542,500.823975 102.472740,496.460419 97.974365,496.056152 
M158.873459,395.447235 
	C158.665146,395.190918 158.402283,395.017090 157.990341,394.109192 
	C157.226807,390.231812 156.463257,386.354462 155.545425,381.693512 
	C151.932358,385.926483 152.752823,389.550476 157.784470,395.820465 
	C157.950073,396.058594 158.128403,396.286743 158.516235,396.910614 
	C158.977676,397.045868 159.439102,397.181122 159.900543,397.316376 
	C159.642395,396.828766 159.384262,396.341156 158.873459,395.447235 
M205.717987,441.885681 
	C206.690887,440.807098 207.663773,439.728516 209.187851,438.237701 
	C210.170914,437.807159 211.153976,437.376617 211.898514,437.598450 
	C211.959915,439.001099 211.930374,441.614899 212.096191,441.627350 
	C215.312134,441.868866 218.550903,441.806427 222.301437,441.806427 
	C219.420090,439.929535 217.326477,438.565765 215.705490,436.862305 
	C216.337112,436.010895 216.968735,435.159454 217.600357,434.308044 
	C217.414139,434.131165 217.227921,433.954254 217.041702,433.777374 
	C216.128662,434.571045 215.215637,435.364716 213.719940,436.372284 
	C213.151550,436.603516 212.583160,436.834747 211.839493,436.381042 
	C212.345230,435.158234 212.850983,433.935425 213.371811,432.676117 
	C209.328476,432.676117 205.883484,432.676117 201.985657,432.676117 
	C203.949341,435.223145 209.525940,432.197632 207.267456,438.144409 
	C206.296951,439.217560 205.326447,440.290741 203.940720,441.693756 
	C203.867355,442.076111 203.793991,442.458435 203.720581,442.840759 
	C204.201324,442.623230 204.682068,442.405701 205.717987,441.885681 
M169.876740,498.241608 
	C170.283157,499.214783 170.689575,500.187927 171.342392,501.751099 
	C172.708206,499.065063 173.596237,497.318665 174.912918,494.729218 
	C173.385284,494.253296 171.890152,493.787476 170.395004,493.321686 
	C170.174347,494.734497 169.953705,496.147278 169.876740,498.241608 
z"/>
<path fill="#851A1B" opacity="1.000000" stroke="none" 
	d="
M428.034149,428.773071 
	C428.852509,431.733185 430.125214,434.262848 430.252747,436.848969 
	C430.528381,442.438660 433.777710,443.757538 438.594299,444.438354 
	C443.672302,445.156097 448.650543,446.705536 453.594910,448.155701 
	C454.855621,448.525513 456.486572,449.757172 456.713226,450.848999 
	C456.891205,451.706268 455.332794,453.175781 454.257629,453.995422 
	C450.658051,456.739532 446.962585,459.363007 443.225159,461.917511 
	C442.347107,462.517700 441.176300,462.726929 440.111755,463.008850 
	C438.144348,463.529846 436.156006,463.971619 434.282074,465.609222 
	C435.384155,465.878510 436.486206,466.147827 436.902069,466.249451 
	C434.069946,468.676422 431.058136,471.257355 428.928986,473.081909 
	C431.426941,481.570618 436.766663,479.769257 440.860870,480.062195 
	C445.515228,480.395172 450.248108,479.980652 454.920654,479.583008 
	C457.917084,479.328003 460.866150,478.516449 465.569244,477.626404 
	C461.788147,474.069000 459.163208,471.599365 456.538269,469.129761 
	C456.666504,468.805328 456.794708,468.480896 456.922943,468.156464 
	C459.355865,468.812378 461.792847,469.453583 464.220886,470.127106 
	C469.974548,471.723206 475.659882,473.677307 481.506744,474.770721 
	C483.838654,475.206879 486.600586,473.039551 489.032928,473.301300 
	C495.537842,474.001190 501.996826,475.240723 508.424042,476.517609 
	C515.052673,477.834503 522.088074,478.429596 528.103943,481.180695 
	C536.283875,484.921387 544.683960,480.647858 552.839172,483.263855 
	C552.257935,482.636322 551.676758,482.008759 550.229858,480.446503 
	C553.030396,481.019958 554.840210,481.390533 557.110657,481.855438 
	C559.222961,479.103485 561.459717,476.189453 564.579712,472.124603 
	C564.579712,478.011322 565.636963,482.991394 564.277649,487.188812 
	C562.960938,491.254333 559.158997,494.515015 556.296570,498.332062 
	C550.977966,493.278534 545.287598,496.018463 539.604614,497.559753 
	C538.063965,497.977600 536.426147,498.023346 534.858032,498.357422 
	C533.040833,498.744568 531.239929,499.223389 529.457581,499.749023 
	C529.019714,499.878204 528.529907,500.694702 528.319153,500.603760 
	C523.276062,498.427979 520.141663,503.580841 515.693909,503.887299 
	C513.857483,504.013885 512.172485,505.619232 510.307983,506.192200 
	C505.023224,507.816193 499.673126,509.226318 494.365631,510.778351 
	C491.847931,511.514557 489.368652,512.382080 486.871948,513.190186 
	C487.004730,513.770203 487.137512,514.350220 487.270294,514.930237 
	C492.346283,514.403259 497.415527,513.784424 502.502808,513.411377 
	C503.842957,513.313110 505.247559,514.255005 506.606689,514.212341 
	C508.108551,514.165161 510.053741,514.007874 511.004303,513.078613 
	C515.275757,508.902924 520.048706,508.502991 525.516113,509.977753 
	C526.846863,510.336731 528.641541,509.391296 530.104797,508.768127 
	C535.295105,506.557739 540.071167,506.227661 545.244568,509.511383 
	C548.571655,511.623169 552.843811,512.245972 556.630188,514.005371 
	C550.863281,514.758606 544.995483,516.647156 540.145386,511.210144 
	C540.837891,515.273804 541.426514,518.728149 541.906372,521.543884 
	C532.563049,522.153687 524.258301,522.134949 516.142761,523.364685 
	C505.561371,524.968140 495.157593,527.716187 484.610352,529.595703 
	C482.538177,529.965027 480.161163,528.623779 478.257019,528.153564 
	C474.645874,528.540955 471.115204,529.192017 467.576477,529.239319 
	C461.337280,529.322754 455.088348,528.819580 448.852203,528.957214 
	C438.959320,529.175720 429.076324,529.835388 419.183502,530.066040 
	C415.455872,530.152954 411.712494,529.565002 407.915802,529.280212 
	C409.332825,527.471069 410.427917,526.072937 411.523010,524.674805 
	C409.490936,523.432007 407.594208,521.759033 405.389374,521.065491 
	C403.114838,520.350037 400.540497,520.587708 397.861633,520.391052 
	C398.609131,522.320984 399.293396,524.087708 400.415253,526.984314 
	C397.289062,526.627502 394.914612,526.667786 392.734161,526.037231 
	C389.152283,525.001343 385.864136,524.152588 381.859131,524.622437 
	C378.204315,525.051208 374.267731,522.794678 370.415009,521.894104 
	C365.806152,520.816711 361.155396,519.918274 356.521118,518.950256 
	C353.275238,518.272278 351.716156,516.364685 351.805878,512.971313 
	C352.117523,501.183380 352.424072,489.394318 352.577271,477.603668 
	C352.641907,472.629822 352.292267,467.651550 352.180206,462.674194 
	C352.045258,456.681366 354.745850,454.822601 360.217194,457.144135 
	C361.937561,457.874115 363.597839,458.745636 366.017090,458.787323 
	C364.788208,457.303040 363.559326,455.818756 362.087891,454.041504 
	C364.567200,453.113434 366.805695,452.137817 369.125763,451.429413 
	C384.002258,446.887177 394.624725,435.511841 407.330750,427.497437 
	C411.527649,424.850250 414.564392,420.388123 418.224365,416.851837 
	C419.474854,415.643616 421.008942,414.728943 423.540894,412.838287 
	C425.201080,418.660431 426.585205,423.514313 428.034149,428.773071 
M512.400635,486.121613 
	C506.113861,485.069580 499.857025,483.621918 493.526886,483.143524 
	C490.649780,482.926056 487.660950,485.140167 484.663208,485.335297 
	C480.446320,485.609741 480.479462,487.447662 481.057159,488.874512 
	C484.684631,490.443329 486.929352,491.809662 489.357910,492.350433 
	C491.670349,492.865356 494.190582,492.702820 496.589966,492.496033 
	C498.766541,492.308411 500.885376,491.518188 503.061157,491.241394 
	C509.529572,490.418457 516.013550,489.717529 522.491394,488.968933 
	C522.469971,488.627319 522.448547,488.285706 522.427124,487.944092 
	C519.361755,487.406494 516.296387,486.868896 512.400635,486.121613 
M530.486938,513.422974 
	C528.472534,513.862061 526.458130,514.301147 524.443726,514.740234 
	C524.355835,515.176147 524.268005,515.612000 524.180176,516.047913 
	C526.132751,516.389954 528.098328,517.059448 530.034241,516.982422 
	C531.988159,516.904785 534.959412,516.638000 535.583923,515.452515 
	C536.358276,513.982666 535.178223,511.483124 534.842346,509.428345 
	C534.394592,509.415344 533.946899,509.402344 533.499146,509.389343 
	C532.643372,510.528809 531.787659,511.668274 530.486938,513.422974 
z"/>
<path fill="#851B1B" opacity="1.000000" stroke="none" 
	d="
M511.383606,372.626770 
	C511.989868,376.572021 513.954956,380.942169 507.884949,382.652008 
	C507.139740,382.861908 506.307129,384.115387 506.190033,384.976990 
	C505.536072,389.788239 505.275513,394.659027 504.467865,399.439819 
	C504.199890,401.025940 503.051056,403.058807 501.713593,403.760864 
	C497.056183,406.205475 495.254608,411.269836 491.047272,413.996918 
	C491.862732,415.708557 492.500458,417.047150 493.670532,419.503235 
	C488.924347,417.040436 487.630646,419.490814 486.164276,422.336700 
	C484.781342,425.020630 483.018097,427.593872 481.008575,429.846985 
	C478.752686,432.376373 476.033173,434.492218 472.717133,437.515747 
	C472.368500,437.436737 470.584778,437.032440 467.471283,436.326752 
	C469.391815,438.469696 470.372650,439.564087 471.652679,440.992371 
	C468.996582,442.484070 463.550598,440.946503 465.742920,447.052734 
	C461.430939,443.837799 460.559174,439.415436 459.985596,434.006348 
	C459.562195,430.740601 459.652771,428.076141 458.647705,425.923218 
	C457.497284,423.458862 455.774353,420.144958 453.600372,419.476654 
	C445.899292,417.109283 437.899628,415.713318 430.013123,413.949219 
	C427.137817,412.052979 427.834381,410.218079 429.634583,407.782990 
	C435.200928,400.253510 441.029572,392.838989 445.762573,384.795013 
	C450.309357,377.067505 453.596466,368.600983 457.482300,360.480835 
	C458.410614,358.540894 459.518555,356.686890 460.868866,354.193176 
	C458.528687,348.216370 461.258453,341.788391 466.561615,340.664337 
	C466.561615,334.367371 466.561615,328.254761 466.561615,320.797546 
	C471.116852,323.044739 474.220367,324.575775 478.615997,326.744232 
	C476.634460,323.774261 475.440521,321.984711 473.458588,319.014130 
	C479.182007,319.014130 483.889191,318.822174 488.575745,319.051422 
	C500.859802,319.652252 513.132751,320.477570 525.414856,321.123566 
	C529.147217,321.319916 531.696411,321.703217 531.126709,326.841461 
	C530.806702,329.728149 533.488281,332.837860 533.804871,335.950134 
	C533.968201,337.555511 532.313293,340.105530 530.776978,340.950256 
	C528.327820,342.296844 524.050781,341.755707 522.866760,343.546661 
	C521.768860,345.207397 523.710510,348.877563 524.312744,351.658478 
	C516.909424,352.869995 511.957947,361.209106 513.839111,369.283691 
	C513.990479,369.933441 513.141418,370.816254 512.332031,371.487915 
	C511.497070,371.426575 511.087311,371.468109 510.677551,371.509674 
	C510.912903,371.882050 511.148254,372.254395 511.383606,372.626770 
z"/>
<path fill="#861B1B" opacity="1.000000" stroke="none" 
	d="
M524.588867,291.204956 
	C525.328491,293.076752 525.750732,294.808777 526.788696,296.007660 
	C529.105286,298.683167 530.693787,301.048615 528.514099,304.805725 
	C527.763306,306.099884 528.820007,308.577789 529.339844,310.434052 
	C529.810913,312.116577 530.675110,313.689026 531.365967,315.310028 
	C531.011292,315.739166 530.656616,316.168274 530.301941,316.597412 
	C527.000305,314.728851 523.698669,312.860260 519.390259,310.421875 
	C520.486145,313.422119 521.139099,315.209900 522.378784,318.603851 
	C503.152466,317.882904 484.796631,317.194641 466.783295,316.519196 
	C467.969421,310.857880 469.109406,306.305847 469.809631,301.687103 
	C470.142883,299.489105 469.655670,297.163025 469.500610,294.897675 
	C469.467285,294.411377 468.994232,293.752655 469.177979,293.483856 
	C472.891724,288.050720 467.960846,283.598602 467.765015,278.970917 
	C467.439270,271.272980 465.990601,265.093292 461.625214,258.564819 
	C455.908813,250.015900 451.985504,240.271332 447.217987,231.078857 
	C446.798096,230.269211 445.920654,229.611679 445.117737,229.100052 
	C440.858826,226.386368 438.166016,217.964005 440.624176,213.766418 
	C441.269562,212.664352 443.280396,211.924179 444.728149,211.806824 
	C450.485931,211.340073 456.269043,211.185303 462.380005,210.899200 
	C462.958252,205.221436 463.847687,199.023209 464.118042,192.798065 
	C464.260010,189.529114 465.632385,188.771362 468.410706,188.949768 
	C470.736053,189.099091 473.132599,189.556290 475.384918,189.188004 
	C486.813354,187.319305 489.951935,198.874557 486.062805,205.875015 
	C489.491150,210.114624 492.729736,214.119537 496.005035,218.169891 
	C497.426361,217.700165 498.976196,217.187958 500.526062,216.675751 
	C500.754059,218.292953 500.762848,219.981354 501.259613,221.511276 
	C502.076691,224.027664 501.247253,226.828400 504.565765,228.915131 
	C507.046112,230.474762 508.924683,234.302368 506.602783,238.210175 
	C506.016052,239.197647 506.176575,241.572983 506.942902,242.276276 
	C515.710083,250.322189 518.777832,260.743988 520.257507,272.051849 
	C520.546326,274.259247 522.591980,276.252228 523.883606,278.308807 
	C525.368286,280.672882 526.915405,282.997742 529.175110,286.479340 
	C526.469543,286.198456 525.585083,286.106628 524.335815,285.976929 
	C524.409790,287.643738 524.480286,289.233521 524.588867,291.204956 
M497.499878,220.145325 
	C497.584412,220.499023 497.668945,220.852722 497.753479,221.206421 
	C497.812561,220.873657 497.871643,220.540894 497.499878,220.145325 
z"/>
<path fill="#851A1B" opacity="1.000000" stroke="none" 
	d="
M153.949188,237.095078 
	C153.103622,239.461853 152.258057,241.828613 151.323898,244.903305 
	C150.992310,246.867447 150.749298,248.123657 150.633438,248.722641 
	C147.757462,249.074051 145.396378,249.362549 142.885620,249.669342 
	C144.570740,255.674896 149.033020,256.497375 153.840942,256.486877 
	C154.537354,256.485352 155.300583,255.278259 155.878342,254.512421 
	C156.027863,254.314255 155.592102,253.674515 155.463303,253.337372 
	C154.037003,253.505585 152.738373,253.658752 152.335373,253.706284 
	C152.631119,250.486450 152.879959,247.777145 153.128815,245.067841 
	C155.454483,243.196182 157.920959,241.514999 156.420105,237.745697 
	C156.089905,236.916428 157.153381,235.392609 157.825043,234.349594 
	C158.333450,233.560089 159.887390,233.004135 159.865784,232.382874 
	C159.698898,227.584473 162.679031,227.730927 167.507309,229.056091 
	C165.176025,226.852890 164.062317,225.800385 162.578934,224.398499 
	C167.620636,221.553497 167.330429,216.622894 168.159592,212.007828 
	C168.399139,210.674637 170.119766,208.985550 171.489410,208.587036 
	C176.886566,207.016739 179.059174,203.541656 179.438080,198.115417 
	C179.565674,196.288071 181.316620,194.508759 182.513229,192.842194 
	C183.455673,191.529572 184.968033,190.580917 185.738983,189.198334 
	C188.790451,183.725845 188.725815,183.685165 193.619232,188.653931 
	C199.839233,195.917572 205.691238,202.627991 211.368729,209.482956 
	C212.071564,210.331543 211.845810,211.949203 212.050354,213.210480 
	C208.700012,212.448914 205.349686,211.687332 201.999344,210.925766 
	C201.891907,211.254135 201.784470,211.582520 201.677017,211.910904 
	C205.890045,213.553925 209.989365,215.649002 214.340378,216.743484 
	C222.743774,218.857346 225.174500,227.100830 230.741333,232.084030 
	C230.900375,232.226410 229.225464,235.413956 228.518555,235.369919 
	C222.773438,235.012054 218.719269,237.228394 215.952606,242.232925 
	C213.948700,245.857681 210.658005,248.497101 210.333527,253.408722 
	C210.162140,256.003174 205.989151,258.145752 204.164917,260.857056 
	C200.189636,266.765381 196.184647,272.715698 192.967514,279.043274 
	C191.583038,281.766266 192.125809,285.469147 191.757141,289.323700 
	C191.612442,290.169006 191.564362,290.428619 191.577026,290.699402 
	C190.829071,291.569122 190.081131,292.438843 188.859070,293.684937 
	C181.221741,299.446228 173.873795,304.607117 166.967102,310.303070 
	C163.055420,313.528992 159.975677,313.577087 155.947922,310.645538 
	C148.873978,305.496826 141.485779,300.779907 134.229202,295.882141 
	C133.351593,293.563263 132.426361,291.260803 131.618286,288.917969 
	C131.262268,287.885681 130.615204,286.096222 130.998215,285.795959 
	C136.303665,281.636810 132.272644,276.755890 131.534637,272.675415 
	C130.482162,266.856232 130.650299,261.731476 134.274399,256.494965 
	C135.243576,256.305450 136.823669,255.996445 137.638641,255.837082 
	C138.389877,251.373917 139.530991,247.409363 139.582657,243.430679 
	C139.626999,240.014755 138.523163,236.559937 137.728729,233.168793 
	C137.405594,231.789474 136.273041,230.585419 136.019745,229.207672 
	C135.686050,227.392654 135.855698,225.485123 135.808945,223.617355 
	C137.774185,224.041794 139.739410,224.466248 141.655853,224.880157 
	C141.086365,227.510025 140.655655,229.498993 140.333298,230.987610 
	C143.150574,231.120361 145.092209,231.211838 147.026093,231.899307 
	C146.510681,233.502960 146.003021,234.510635 145.495361,235.518311 
	C150.283691,237.324493 146.180725,241.114700 147.301361,244.059540 
	C150.344589,242.327621 148.523056,236.097046 153.949188,237.095078 
M144.494400,245.297546 
	C144.592484,245.404724 144.690552,245.511917 144.788651,245.619095 
	C144.769333,245.510590 144.750015,245.402084 144.494400,245.297546 
z"/>
<path fill="#861B1B" opacity="1.000000" stroke="none" 
	d="
M208.831757,175.468048 
	C210.886414,175.284500 212.941086,175.100952 215.698181,174.887131 
	C217.443161,173.935593 218.509354,173.039566 219.524216,172.088715 
	C224.142212,167.761993 224.886765,160.051285 231.952744,157.859634 
	C234.186584,154.690643 236.725113,153.341782 240.800659,157.996368 
	C238.057419,148.464569 240.692749,142.176117 247.033035,137.090332 
	C250.156616,140.636597 250.688873,147.153809 248.637970,150.864029 
	C248.131104,151.781021 248.374084,153.112518 248.272354,154.253464 
	C249.420120,154.346375 250.851089,154.918655 251.661240,154.440063 
	C253.869873,153.135345 255.816345,151.386795 258.411682,149.396072 
	C259.158417,150.268417 265.135925,148.547073 262.095276,154.511505 
	C268.811218,154.919647 277.717957,150.833023 281.169525,146.058151 
	C284.100616,146.569138 286.857361,147.049728 289.614105,147.530334 
	C289.751709,147.087158 289.889313,146.643982 290.026917,146.200806 
	C288.988953,145.362045 287.950958,144.523285 286.912994,143.684509 
	C286.942047,143.223053 286.971100,142.761597 287.000153,142.300140 
	C290.089111,142.058594 293.331390,141.095825 296.237640,141.713730 
	C304.246429,143.416428 311.809814,140.701981 316.300446,133.022171 
	C317.008240,135.898834 317.909058,138.030365 318.003784,140.197128 
	C318.555908,152.823532 318.977509,165.456650 319.308472,178.091049 
	C319.402710,181.688492 314.246613,186.524918 310.729645,186.989395 
	C307.816162,187.374176 304.973572,188.313889 302.111023,189.052200 
	C301.483154,189.214142 300.870087,189.851196 300.307098,189.785019 
	C290.201111,188.597443 282.329102,194.758591 273.868469,198.370331 
	C267.136353,201.244156 261.471741,206.549927 255.152069,210.485123 
	C251.506363,212.755249 247.643753,214.841003 243.621475,216.300781 
	C238.632950,218.111252 237.088684,222.158905 236.081299,226.504410 
	C235.550613,228.793701 235.449768,230.542160 232.177307,228.869629 
	C230.492767,226.878159 229.139572,225.487076 227.786377,224.095993 
	C227.786392,224.095993 227.923965,224.058151 227.774307,223.879501 
	C227.076416,223.136673 226.528183,222.572495 225.979950,222.008331 
	C225.979935,222.008331 226.005035,221.997299 225.930084,221.654343 
	C224.395660,219.663559 222.936188,218.015732 221.476715,216.367905 
	C221.476715,216.367905 221.596237,216.370956 221.576416,215.996063 
	C220.851746,211.734726 221.882385,207.105347 217.006836,204.751373 
	C217.000229,204.332626 216.997665,204.165115 216.996643,203.652252 
	C217.000153,202.616028 217.002151,201.925186 217.368622,201.231781 
	C219.163910,201.506943 220.594757,201.784668 222.249329,202.264374 
	C224.085327,202.715027 225.709000,203.145218 227.299377,203.045319 
	C227.586365,203.027283 227.736496,200.830276 227.949814,199.639282 
	C226.293198,199.377075 224.642105,199.061661 222.976196,198.889206 
	C222.547501,198.844818 222.072205,199.250626 221.281021,199.410751 
	C220.296143,199.170532 219.648590,198.969177 218.870117,198.466766 
	C214.735153,193.019867 212.098511,192.405746 205.500763,195.084564 
	C205.301147,195.040451 204.929016,194.871078 204.682404,194.725372 
	C204.104156,194.387466 203.772537,194.195267 203.144989,193.910461 
	C200.941467,191.867752 199.033890,189.917664 197.374207,187.591782 
	C201.358658,183.300003 205.095200,179.384018 208.831757,175.468048 
M219.431473,179.571915 
	C219.342743,182.259293 219.598022,184.954926 223.245880,184.262329 
	C225.713943,183.793686 228.027283,182.510223 230.409836,181.591217 
	C229.352081,180.149277 228.563644,177.905060 227.177979,177.439911 
	C224.642319,176.588730 221.116684,173.844299 219.431473,179.571915 
z"/>
<path fill="#851A1B" opacity="1.000000" stroke="none" 
	d="
M434.153870,220.781662 
	C428.833771,215.905350 423.788605,211.239655 418.539978,206.815308 
	C413.296478,202.395294 407.231750,199.720932 400.727661,197.294876 
	C393.558258,194.620682 387.241669,189.660187 380.273010,185.529312 
	C377.250153,188.556030 374.656281,188.380783 371.344635,184.900192 
	C369.665710,183.135635 365.422272,184.065964 363.151184,182.555573 
	C358.752350,179.630157 358.737000,184.207306 356.815521,185.509003 
	C356.449890,185.756683 355.887817,185.714325 354.087341,186.063599 
	C355.239471,163.689743 356.370300,141.729309 357.519165,119.418617 
	C359.279205,119.914848 359.817291,119.952553 359.844269,120.090378 
	C362.150452,131.863419 373.003723,133.985428 381.270142,138.972824 
	C382.281158,139.582809 383.890503,139.109207 385.088470,139.524551 
	C386.576202,140.040405 388.046722,140.798294 389.297028,141.750534 
	C390.460144,142.636368 391.414551,144.877274 392.298981,144.794388 
	C393.623749,144.670227 394.806946,143.035034 396.406982,141.757782 
	C400.648071,143.524551 405.287079,146.083923 410.252594,147.235229 
	C412.415741,147.736771 415.248749,145.349258 418.997559,143.754990 
	C417.358643,146.765381 416.168518,148.951447 414.755554,151.546799 
	C416.643768,154.044769 419.013763,152.732986 421.563721,152.119247 
	C422.841827,151.811630 425.732635,153.027084 425.703064,153.223648 
	C425.030426,157.688828 428.621826,157.253372 431.103485,158.342712 
	C431.809998,157.165619 432.427460,156.136902 432.979034,155.217972 
	C436.665070,155.892105 436.966766,162.536804 442.342346,159.266220 
	C442.342346,161.131699 442.342346,162.668121 442.342346,163.616150 
	C445.800781,165.775391 448.982666,167.761978 453.053436,170.303528 
	C455.356903,169.182877 455.277710,161.710037 462.010773,165.309799 
	C462.010773,169.363678 461.891388,174.143600 462.191956,178.896957 
	C462.222626,179.382095 464.773346,179.707886 466.154633,180.107620 
	C466.340881,179.625000 466.527130,179.142365 466.713348,178.659744 
	C467.525238,179.688065 468.406342,180.669769 469.136444,181.753235 
	C471.624939,185.446167 471.074188,186.912384 466.686127,186.872223 
	C462.925781,186.837830 461.927155,188.078735 461.828217,191.796219 
	C461.707367,196.337219 460.806946,200.926407 459.626373,205.329254 
	C459.261261,206.690826 456.970428,208.249069 455.405396,208.440048 
	C450.996521,208.978104 446.506531,208.957703 442.048706,208.952805 
	C438.847443,208.949280 438.077423,210.644745 438.254669,213.410706 
	C438.522644,217.593216 438.704498,221.781235 437.943573,226.108688 
	C436.742249,224.438492 435.540924,222.768280 434.153870,220.781662 
z"/>
<path fill="#841A1B" opacity="1.000000" stroke="none" 
	d="
M325.774292,483.002594 
	C328.190125,482.023285 330.543549,480.797729 333.046814,480.163483 
	C334.399323,479.820801 336.374878,479.989716 337.444458,480.776917 
	C349.126038,489.374847 352.271149,500.951538 348.676941,514.921997 
	C346.427124,514.699036 343.963318,514.034180 341.606750,514.304565 
	C335.870209,514.962769 329.094086,513.116882 325.888367,520.677856 
	C325.367004,521.907471 322.470123,522.129883 319.502625,523.264709 
	C319.149292,518.554810 318.763123,514.536987 318.578369,510.510010 
	C318.471954,508.190582 319.063660,505.795685 318.696747,503.539520 
	C317.403961,495.590302 318.740173,488.661591 325.659729,483.182922 
	C325.835938,482.872131 325.774292,483.002594 325.774292,483.002594 
z"/>
<path fill="#841A1B" opacity="1.000000" stroke="none" 
	d="
M325.021637,169.910431 
	C323.915344,168.806839 321.963318,167.792374 321.836182,166.585587 
	C320.794525,156.701355 319.973175,146.788574 319.370483,136.867111 
	C319.216400,134.330261 320.110840,132.161133 323.698303,132.080322 
	C326.189087,132.024200 328.650085,130.647263 331.991180,129.584793 
	C332.857147,132.418549 333.813232,135.547348 334.389465,137.432938 
	C335.272858,134.944748 335.636444,130.154266 338.219299,127.686882 
	C340.894989,125.130768 345.722290,124.826904 350.986542,123.080864 
	C350.124542,131.570908 353.525879,138.643082 348.074921,145.594269 
	C340.622467,153.317993 333.693970,160.595154 326.516144,168.024994 
	C325.821655,168.798553 325.376465,169.419434 324.953979,170.007935 
	C324.976715,169.975571 325.021637,169.910431 325.021637,169.910431 
z"/>
<path fill="#831A1B" opacity="1.000000" stroke="none" 
	d="
M146.958420,328.836639 
	C149.739273,333.389587 146.542999,335.558258 143.327530,337.520691 
	C141.796860,338.454803 139.958115,338.884125 137.871796,339.606934 
	C137.323685,337.928833 137.162674,336.185883 136.983002,334.240692 
	C134.511871,335.922760 132.397125,337.362213 129.971100,339.013550 
	C129.971100,335.653229 130.131409,332.956940 129.939514,330.285919 
	C129.461487,323.631805 128.723984,316.995270 128.315125,310.337860 
	C128.205429,308.551758 128.934082,306.721313 129.217773,304.901886 
	C129.520889,302.957855 130.187805,300.910004 129.801193,299.098389 
	C129.647385,298.377625 127.116364,298.050629 125.625816,297.754425 
	C123.184547,297.269226 120.709137,296.955811 117.870369,296.510712 
	C121.632256,292.100098 122.789879,292.200073 132.795044,297.412354 
	C141.939835,303.581299 150.518585,309.387146 159.908203,315.741791 
	C154.229965,320.371521 149.463821,324.257568 144.697678,328.143616 
	C144.860336,328.439667 145.022995,328.735718 145.185654,329.031769 
	C145.776566,328.966736 146.367493,328.901672 146.958420,328.836639 
z"/>
<path fill="#841A1B" opacity="1.000000" stroke="none" 
	d="
M350.221466,146.138779 
	C352.825836,149.338348 352.935303,152.810486 352.522186,156.880600 
	C351.991882,162.104904 352.955658,167.463486 352.980316,172.765594 
	C353.016663,180.581589 351.497528,181.556122 343.751007,181.465958 
	C336.806335,181.385101 329.851776,182.154968 322.447235,182.575317 
	C318.487091,178.206024 323.108002,174.654968 325.097748,170.280884 
	C325.021637,169.910431 324.976715,169.975571 325.299683,170.091904 
	C326.539154,169.501923 327.455658,168.795593 328.665588,167.956177 
	C336.046539,160.594986 343.134003,153.366882 350.221466,146.138779 
z"/>
<path fill="#841A1B" opacity="1.000000" stroke="none" 
	d="
M457.373840,434.056091 
	C458.224731,437.704529 459.075592,441.352966 460.284576,446.536926 
	C451.373138,444.183685 443.035950,443.950836 435.562805,440.028809 
	C434.360413,439.397766 433.596436,437.390961 433.193970,435.870758 
	C431.543701,429.637177 430.082489,423.352448 428.649506,417.064270 
	C428.521179,416.501068 429.096680,415.777435 430.005005,415.203613 
	C434.678131,416.231110 438.655090,417.395538 442.712341,418.092926 
	C452.210907,419.725677 454.520325,421.748840 456.775482,431.129028 
	C457.008148,432.096741 457.175934,433.080017 457.373840,434.056091 
z"/>
<path fill="#0E0404" opacity="1.000000" stroke="none" 
	d="
M109.846886,511.999542 
	C118.438797,504.422852 107.105591,503.785645 104.767006,499.797974 
	C114.057594,500.594635 115.660362,501.899567 115.749268,508.848572 
	C116.926712,508.246735 117.866737,507.766266 118.811676,507.282532 
	C122.557869,511.809631 126.116531,512.096558 131.486557,509.578674 
	C133.654709,508.562103 136.697540,509.411072 140.142471,509.411072 
	C139.374420,507.380676 138.630386,505.413788 137.751068,503.089264 
	C139.888290,501.824799 142.182922,500.467224 144.477554,499.109619 
	C144.789032,499.245270 145.100510,499.380920 145.411972,499.516541 
	C144.518250,501.453888 143.624512,503.391235 142.352951,506.147583 
	C142.616196,506.506866 143.540222,507.768066 144.464264,509.029266 
	C144.695389,508.495819 144.926514,507.962372 145.157639,507.428925 
	C148.587662,508.260742 152.028229,509.051819 155.445236,509.934052 
	C160.469437,511.231293 160.775238,511.001465 160.186462,506.024506 
	C159.874161,503.384583 163.671051,499.790314 166.861755,499.699951 
	C165.707062,503.437622 164.420166,507.143097 163.497803,510.937164 
	C163.249695,511.957794 164.109909,513.247864 164.461334,514.414246 
	C165.118744,514.019836 165.776169,513.625427 166.673859,513.041138 
	C166.872055,515.811157 167.021759,518.792969 166.687805,521.719604 
	C166.564560,522.799805 165.301956,523.750000 164.559021,524.759521 
	C163.594757,524.039612 162.635422,523.312927 161.665253,522.601135 
	C159.660355,521.130066 157.649689,519.666809 155.590424,518.009155 
	C156.469482,517.243774 157.399521,516.669617 159.524750,515.357544 
	C154.350510,515.357544 150.874100,515.241882 147.421844,515.478638 
	C146.885925,515.515503 146.460526,517.163879 145.984024,518.067017 
	C144.468811,517.728943 142.953598,517.390808 141.429626,516.644775 
	C142.110992,515.711060 142.801132,515.185242 143.491272,514.659363 
	C142.882767,514.184448 142.154282,513.208130 141.686188,513.320129 
	C139.484787,513.846863 137.354858,514.672302 135.199432,515.391113 
	C134.930771,515.201660 134.462524,514.810547 134.421646,514.851074 
	C127.200623,522.001404 120.934296,515.369568 114.356743,513.468445 
	C112.932281,513.056763 111.542625,512.524597 109.846886,511.999542 
z"/>
<path fill="#831A1B" opacity="1.000000" stroke="none" 
	d="
M178.153168,328.943481 
	C174.655594,328.015961 171.048309,327.233734 170.228760,322.301208 
	C170.045807,321.155731 169.901199,320.441711 169.465424,320.061035 
	C165.182770,316.319916 165.085770,315.559052 169.480347,311.977081 
	C174.480545,307.901520 179.608566,303.977997 184.804214,300.155884 
	C185.226791,299.845032 186.598450,300.824310 187.529099,301.204102 
	C186.416290,312.373962 188.109772,323.090515 194.039536,333.122772 
	C193.548859,333.347382 193.058182,333.571991 192.567505,333.796600 
	C189.584366,332.726868 186.601212,331.657104 183.271179,330.796509 
	C182.924271,331.005646 182.981827,331.022339 183.067276,330.690643 
	C182.417542,329.889404 181.682358,329.419861 180.947174,328.950317 
	C180.947174,328.950317 181.011841,328.985077 180.897491,328.735046 
	C179.906494,328.637848 179.029831,328.790649 178.153168,328.943481 
z"/>
<path fill="#110404" opacity="1.000000" stroke="none" 
	d="
M187.691055,300.918243 
	C186.598450,300.824310 185.226791,299.845032 184.804214,300.155884 
	C179.608566,303.977997 174.480545,307.901520 169.480347,311.977081 
	C165.085770,315.559052 165.182770,316.319916 169.465424,320.061035 
	C169.901199,320.441711 170.045807,321.155731 170.162994,321.959595 
	C169.816605,322.169403 169.632721,322.134613 169.086212,321.890350 
	C168.576523,321.459778 168.370438,321.341125 168.105347,321.324890 
	C163.185532,316.080139 158.942261,319.926025 154.801926,322.507172 
	C152.150864,324.159851 149.857086,326.385651 147.180771,328.595581 
	C146.367493,328.901672 145.776566,328.966736 145.185654,329.031769 
	C145.022995,328.735718 144.860336,328.439667 144.697678,328.143616 
	C149.463821,324.257568 154.229965,320.371521 159.908203,315.741791 
	C150.518585,309.387146 141.939835,303.581299 133.124710,297.551086 
	C133.183884,297.003479 133.479446,296.680176 134.002106,296.119507 
	C141.485779,300.779907 148.873978,305.496826 155.947922,310.645538 
	C159.975677,313.577087 163.055420,313.528992 166.967102,310.303070 
	C173.873795,304.607117 181.221741,299.446228 188.658249,293.964050 
	C188.572021,296.121979 188.212524,298.377167 187.691055,300.918243 
z"/>
<path fill="#180505" opacity="1.000000" stroke="none" 
	d="
M222.025589,202.062378 
	C220.594757,201.784668 219.163910,201.506943 217.045715,201.165939 
	C215.319794,201.572556 214.281219,202.042450 213.104248,202.408325 
	C212.823029,202.503616 212.680237,202.702927 212.382065,202.691956 
	C211.797455,202.658356 211.368256,202.835022 210.913269,203.371780 
	C211.851105,204.852966 212.814728,205.974075 213.830688,207.447556 
	C215.214478,209.544174 216.545944,211.288422 217.877411,213.032684 
	C216.100952,213.153519 214.324478,213.274384 212.299179,213.302856 
	C211.845810,211.949203 212.071564,210.331543 211.368729,209.482956 
	C205.691238,202.627991 199.839233,195.917572 193.892456,188.882446 
	C194.069885,188.231995 194.395340,187.862167 195.223282,187.328674 
	C196.192612,187.432526 196.659454,187.700058 197.126297,187.967575 
	C199.033890,189.917664 200.941467,191.867752 203.349899,194.123901 
	C204.210175,194.576981 204.569595,194.724030 204.929016,194.871078 
	C204.929016,194.871078 205.301147,195.040451 205.802948,195.277466 
	C210.536835,196.598938 214.768921,197.683395 219.001022,198.767838 
	C219.648590,198.969177 220.296143,199.170532 221.588745,199.530212 
	C223.385986,200.038956 224.538193,200.389343 225.690384,200.739716 
	C225.667236,201.020264 225.644089,201.300797 225.620941,201.581329 
	C224.422501,201.741684 223.224045,201.902039 222.025589,202.062378 
z"/>
<path fill="#7A181A" opacity="1.000000" stroke="none" 
	d="
M325.011169,466.064941 
	C325.298126,464.872070 326.174774,463.406036 325.770569,462.533295 
	C323.963074,458.630859 326.248413,457.535797 329.247131,457.495972 
	C331.477753,457.466339 333.701263,458.530853 335.964233,458.853882 
	C338.199768,459.173004 340.480835,459.172974 343.999115,459.390717 
	C340.253174,463.744720 337.325562,467.316711 334.132599,470.633179 
	C333.756409,471.023956 331.799011,470.216125 330.792358,469.605194 
	C328.997040,468.515411 327.367950,467.151672 325.334106,465.954498 
	C324.998840,466.006470 325.011169,466.064941 325.011169,466.064941 
z"/>
<path fill="#831A1B" opacity="1.000000" stroke="none" 
	d="
M349.272186,474.395386 
	C349.280090,478.436157 349.280090,482.046051 349.280090,486.846527 
	C346.684723,484.390167 345.140686,482.784668 343.449005,481.353699 
	C337.514496,476.333923 337.527069,473.142456 343.752258,468.338074 
	C344.852936,467.488617 346.342468,467.143036 347.652435,466.564789 
	C348.152252,467.871216 348.795319,469.144531 349.107239,470.494385 
	C349.363617,471.603912 349.226807,472.804352 349.272186,474.395386 
z"/>
<path fill="#831A1B" opacity="1.000000" stroke="none" 
	d="
M325.566101,482.593323 
	C325.774292,483.002594 325.835938,482.872131 325.871948,482.867004 
	C324.252350,482.996582 322.596771,483.131287 320.380615,483.311615 
	C320.380615,476.968842 320.380615,470.711578 320.380615,463.924866 
	C321.973511,464.842010 323.185181,465.539673 324.704041,466.151123 
	C325.011169,466.064941 324.998840,466.006470 324.969238,466.001160 
	C327.108002,470.532806 327.280945,477.227539 325.566101,482.593323 
z"/>
<path fill="#110404" opacity="1.000000" stroke="none" 
	d="
M457.687012,434.054504 
	C457.175934,433.080017 457.008148,432.096741 456.775482,431.129028 
	C454.520325,421.748840 452.210907,419.725677 442.712341,418.092926 
	C438.655090,417.395538 434.678131,416.231110 430.333588,415.115845 
	C430.004059,414.785492 430.005585,414.618225 430.010132,414.200104 
	C437.899628,415.713318 445.899292,417.109283 453.600372,419.476654 
	C455.774353,420.144958 457.497284,423.458862 458.647705,425.923218 
	C459.652771,428.076141 459.562195,430.740601 459.917297,433.599548 
	C459.252655,434.030975 458.626434,434.041962 457.687012,434.054504 
z"/>
<path fill="#7A181A" opacity="1.000000" stroke="none" 
	d="
M179.825226,520.162292 
	C176.694763,519.813354 173.860992,519.615662 171.027237,519.417969 
	C171.012726,518.891235 170.998215,518.364441 170.983719,517.837708 
	C172.267792,516.936646 173.551880,516.035583 174.835953,515.134521 
	C174.837845,515.511230 174.839722,515.888000 174.841599,516.264709 
	C181.071503,516.823547 187.301392,517.382324 193.531296,517.941162 
	C193.526840,518.394592 193.522400,518.848022 193.517944,519.301453 
	C189.799591,520.508423 186.109695,521.827820 182.328278,522.785889 
	C181.833389,522.911316 180.868881,521.183167 179.825226,520.162292 
z"/>
<path fill="#7A181A" opacity="1.000000" stroke="none" 
	d="
M266.891724,125.282852 
	C267.291260,127.203300 268.469757,129.645630 267.824371,130.306290 
	C265.550720,132.633743 264.660767,137.806427 258.572510,135.338867 
	C260.585083,131.674255 262.366852,128.279617 264.357239,125.012032 
	C264.584290,124.639275 265.980225,124.978531 266.891724,125.282852 
z"/>
<path fill="#841A1B" opacity="1.000000" stroke="none" 
	d="
M231.590179,157.991852 
	C224.886765,160.051285 224.142212,167.761993 219.524216,172.088715 
	C218.509354,173.039566 217.443161,173.935593 216.135605,174.829971 
	C217.316345,170.062515 218.412415,165.165649 220.419434,160.675980 
	C221.027145,159.316544 224.108459,158.883438 226.145477,158.399277 
	C227.769577,158.013275 229.528519,158.194580 231.590179,157.991852 
z"/>
<path fill="#180505" opacity="1.000000" stroke="none" 
	d="
M152.847900,245.039001 
	C152.879959,247.777145 152.631119,250.486450 152.335373,253.706284 
	C152.738373,253.658752 154.037003,253.505585 155.463303,253.337372 
	C155.592102,253.674515 156.027863,254.314255 155.878342,254.512421 
	C155.300583,255.278259 154.537354,256.485352 153.840942,256.486877 
	C149.033020,256.497375 144.570740,255.674896 142.885620,249.669342 
	C145.396378,249.362549 147.757462,249.074051 150.633438,248.722641 
	C150.749298,248.123657 150.992310,246.867447 151.338654,245.260834 
	C151.816986,244.943695 152.191971,244.976929 152.847900,245.039001 
z"/>
<path fill="#180505" opacity="1.000000" stroke="none" 
	d="
M349.685486,146.042847 
	C343.134003,153.366882 336.046539,160.594986 328.263336,167.904556 
	C327.300232,167.948120 327.032837,167.910217 326.765442,167.872314 
	C333.693970,160.595154 340.622467,153.317993 347.813599,145.902191 
	C348.433960,145.824677 348.791748,145.885803 349.685486,146.042847 
z"/>
<path fill="#841A1B" opacity="1.000000" stroke="none" 
	d="
M197.374207,187.591782 
	C196.659454,187.700058 196.192612,187.432526 195.472488,187.055908 
	C192.881897,183.385330 193.203705,181.073196 197.873459,179.900253 
	C199.746048,179.429886 201.171997,177.397263 203.010376,176.508102 
	C204.542587,175.767044 206.380356,175.657715 208.457275,175.368317 
	C205.095200,179.384018 201.358658,183.300003 197.374207,187.591782 
z"/>
<path fill="#7A181A" opacity="1.000000" stroke="none" 
	d="
M212.795776,478.397614 
	C208.022263,475.912109 203.593185,473.449341 199.164093,470.986572 
	C199.556335,470.272308 199.948578,469.558014 200.340820,468.843750 
	C205.692719,471.795319 211.044601,474.746918 216.396500,477.698486 
	C216.314880,478.027405 216.233261,478.356323 216.151642,478.685242 
	C215.147827,478.596954 214.144028,478.508636 212.795776,478.397614 
z"/>
<path fill="#7A181A" opacity="1.000000" stroke="none" 
	d="
M269.281860,144.059723 
	C269.273499,144.551453 269.231415,144.715561 269.238495,144.877487 
	C269.320892,146.758148 269.410706,148.638474 269.498596,150.518890 
	C267.803589,149.236038 266.044922,148.027893 264.429352,146.651764 
	C262.324707,144.858963 262.391449,142.751862 264.646606,141.356705 
	C267.049866,139.869904 268.671326,141.090164 269.281860,144.059723 
z"/>
<path fill="#7A181A" opacity="1.000000" stroke="none" 
	d="
M277.767029,140.940094 
	C276.089203,137.530670 277.726166,135.987930 280.527832,135.359222 
	C283.140961,134.772812 285.824158,134.498734 288.713196,134.528488 
	C285.138977,136.781342 283.763519,142.275009 277.767029,140.940094 
z"/>
<path fill="#180505" opacity="1.000000" stroke="none" 
	d="
M153.934845,236.812637 
	C148.523056,236.097046 150.344589,242.327621 147.301361,244.059540 
	C146.180725,241.114700 150.283691,237.324493 145.495361,235.518311 
	C146.003021,234.510635 146.510681,233.502960 147.153381,232.220520 
	C149.499084,233.473907 151.709793,235.002060 153.934845,236.812637 
z"/>
<path fill="#7A181A" opacity="1.000000" stroke="none" 
	d="
M146.333267,518.026001 
	C146.460526,517.163879 146.885925,515.515503 147.421844,515.478638 
	C150.874100,515.241882 154.350510,515.357544 159.524750,515.357544 
	C157.399521,516.669617 156.469482,517.243774 155.157990,517.865051 
	C153.634644,518.736633 152.492752,519.561096 151.532639,520.254333 
	C149.763443,519.426575 148.222977,518.705811 146.333267,518.026001 
z"/>
<path fill="#7A181A" opacity="1.000000" stroke="none" 
	d="
M298.894745,123.623161 
	C302.488739,124.396530 301.955566,126.439362 299.907745,127.588150 
	C297.819031,128.759888 295.145569,128.889282 292.142883,129.616806 
	C292.536743,124.423920 296.103821,124.750664 298.894745,123.623161 
z"/>
<path fill="#841A1B" opacity="1.000000" stroke="none" 
	d="
M218.163971,213.182861 
	C216.545944,211.288422 215.214478,209.544174 214.137909,207.334808 
	C215.265488,206.247330 216.138184,205.624969 217.010880,205.002625 
	C221.882385,207.105347 220.851746,211.734726 221.574890,216.055817 
	C220.545624,215.437988 219.498077,214.385498 218.163971,213.182861 
z"/>
<path fill="#180505" opacity="1.000000" stroke="none" 
	d="
M87.077217,498.143616 
	C90.491219,499.672363 93.930824,501.471741 97.370438,503.271088 
	C97.196381,503.836700 97.022316,504.402283 96.848259,504.967896 
	C93.275658,505.930267 90.774994,502.272491 87.307838,501.292725 
	C87.036484,500.216492 87.069656,499.315369 87.077217,498.143616 
z"/>
<path fill="#7A181A" opacity="1.000000" stroke="none" 
	d="
M135.144165,515.643311 
	C137.354858,514.672302 139.484787,513.846863 141.686188,513.320129 
	C142.154282,513.208130 142.882767,514.184448 143.491272,514.659363 
	C142.801132,515.185242 142.110992,515.711060 141.187790,516.424988 
	C139.047668,515.979736 136.502075,520.565857 135.144165,515.643311 
z"/>
<path fill="#831A1B" opacity="1.000000" stroke="none" 
	d="
M136.206497,340.686157 
	C135.826889,342.231415 135.191788,343.934906 134.263184,345.823120 
	C134.630142,344.286682 135.290573,342.565521 136.206497,340.686157 
z"/>
<path fill="#841A1B" opacity="1.000000" stroke="none" 
	d="
M221.621063,216.672455 
	C222.936188,218.015732 224.395660,219.663559 225.922073,221.665665 
	C224.581146,220.338959 223.173279,218.657974 221.621063,216.672455 
z"/>
<path fill="#841A1B" opacity="1.000000" stroke="none" 
	d="
M227.913696,224.399109 
	C229.139572,225.487076 230.492767,226.878159 231.932327,228.601105 
	C230.692795,227.522720 229.366913,226.112473 227.913696,224.399109 
z"/>
<path fill="#841A1B" opacity="1.000000" stroke="none" 
	d="
M226.090607,222.289978 
	C226.528183,222.572495 227.076416,223.136673 227.793213,223.948288 
	C227.374939,223.654373 226.788101,223.113022 226.090607,222.289978 
z"/>
<path fill="#831A1B" opacity="1.000000" stroke="none" 
	d="
M137.698685,339.954926 
	C137.742691,340.146606 137.502213,340.377289 137.091125,340.791077 
	C137.080002,340.642151 137.244553,340.315369 137.698685,339.954926 
z"/>
<path fill="#110404" opacity="1.000000" stroke="none" 
	d="
M191.657043,290.521606 
	C191.564362,290.428619 191.612442,290.169006 191.832062,289.743958 
	C191.899765,289.832947 191.831161,290.091766 191.657043,290.521606 
z"/>
<path fill="#0E0404" opacity="1.000000" stroke="none" 
	d="
M158.514740,520.502319 
	C158.512299,520.485840 158.517181,520.518799 158.514740,520.502319 
z"/>
<path fill="#110404" opacity="1.000000" stroke="none" 
	d="
M157.550507,395.457764 
	C152.752823,389.550476 151.932358,385.926483 155.545425,381.693512 
	C156.463257,386.354462 157.226807,390.231812 157.903564,394.650024 
	C157.816788,395.190887 157.550507,395.457764 157.550507,395.457764 
z"/>
<path fill="#010000" opacity="1.000000" stroke="none" 
	d="
M212.137039,436.946106 
	C211.153976,437.376617 210.170914,437.807159 208.704315,438.238892 
	C208.081940,438.103821 207.943115,437.967590 207.804276,437.831360 
	C209.525940,432.197632 203.949341,435.223145 201.985657,432.676117 
	C205.883484,432.676117 209.328476,432.676117 213.371811,432.676117 
	C212.850983,433.935425 212.345230,435.158234 211.955597,436.691406 
	C212.071686,437.001740 212.137039,436.946075 212.137039,436.946106 
z"/>
<path fill="#010000" opacity="1.000000" stroke="none" 
	d="
M212.043213,437.033875 
	C212.583160,436.834747 213.151550,436.603516 214.243179,436.526825 
	C214.921906,436.854919 215.077393,437.028442 215.232880,437.201996 
	C217.326477,438.565765 219.420090,439.929535 222.301437,441.806427 
	C218.550903,441.806427 215.312134,441.868866 212.096191,441.627350 
	C211.930374,441.614899 211.959915,439.001099 212.017776,437.272278 
	C212.137039,436.946075 212.071686,437.001740 212.043213,437.033875 
z"/>
<path fill="#110404" opacity="1.000000" stroke="none" 
	d="
M169.804901,497.900848 
	C169.953705,496.147278 170.174347,494.734497 170.395020,493.321655 
	C171.890152,493.787476 173.385284,494.253296 174.912918,494.729218 
	C173.596237,497.318665 172.708206,499.065063 171.342392,501.751099 
	C170.689575,500.187927 170.283157,499.214783 169.804901,497.900848 
z"/>
<path fill="#110404" opacity="1.000000" stroke="none" 
	d="
M98.002182,496.045105 
	C102.472740,496.460419 101.458542,500.823975 103.059486,503.299103 
	C103.196426,503.510742 102.329453,504.775055 101.775284,504.907410 
	C101.301483,505.020569 100.249954,504.327423 100.072182,503.787384 
	C99.310799,501.474426 98.778137,499.086212 98.106789,496.351807 
	C98.051498,495.978210 98.029984,496.034058 98.002182,496.045105 
z"/>
<path fill="#010000" opacity="1.000000" stroke="none" 
	d="
M225.368591,427.449036 
	C224.015167,429.143250 222.423798,430.562592 220.305740,431.927124 
	C219.625183,431.747650 219.471313,431.623016 219.317413,431.498413 
	C220.906219,429.981873 222.495041,428.465363 224.368622,426.787292 
	C224.812485,426.808533 224.971573,426.991394 225.368591,427.449036 
z"/>
<path fill="#010000" opacity="1.000000" stroke="none" 
	d="
M201.780441,445.520325 
	C200.794647,446.345551 199.808868,447.170776 198.522278,448.114807 
	C198.070557,448.041351 197.919617,447.849060 197.543228,447.366882 
	C198.255676,446.349609 199.193558,445.622223 200.687271,445.003784 
	C201.422211,445.248627 201.601318,445.384491 201.780441,445.520325 
z"/>
<path fill="#010000" opacity="1.000000" stroke="none" 
	d="
M214.534515,436.419861 
	C215.215637,435.364716 216.128662,434.571045 217.041702,433.777374 
	C217.227921,433.954254 217.414139,434.131165 217.600357,434.308044 
	C216.968735,435.159454 216.337112,436.010895 215.469177,437.032166 
	C215.077393,437.028442 214.921906,436.854919 214.534515,436.419861 
z"/>
<path fill="#010000" opacity="1.000000" stroke="none" 
	d="
M204.355927,441.363892 
	C205.326447,440.290741 206.296951,439.217560 207.535858,437.987885 
	C207.943115,437.967590 208.081940,438.103821 208.428711,438.444977 
	C207.663773,439.728516 206.690887,440.807098 205.238968,441.830566 
	C204.625259,441.638275 204.490585,441.501068 204.355927,441.363892 
z"/>
<path fill="#010000" opacity="1.000000" stroke="none" 
	d="
M180.927582,329.290955 
	C181.682358,329.419861 182.417542,329.889404 183.092270,330.707184 
	C182.323883,330.580811 181.615952,330.106171 180.927582,329.290955 
z"/>
<path fill="#010000" opacity="1.000000" stroke="none" 
	d="
M178.521942,329.001770 
	C179.029831,328.790649 179.906494,328.637848 180.925385,328.758911 
	C180.341980,329.041870 179.616348,329.050964 178.521942,329.001770 
z"/>
<path fill="#110404" opacity="1.000000" stroke="none" 
	d="
M159.126129,395.853546 
	C159.384262,396.341156 159.642395,396.828766 159.900543,397.316376 
	C159.439102,397.181122 158.977676,397.045868 158.620132,396.545685 
	C158.858063,396.071686 158.992096,395.962616 159.126129,395.853546 
z"/>
<path fill="#010000" opacity="1.000000" stroke="none" 
	d="
M204.961380,441.981812 
	C204.682068,442.405701 204.201324,442.623230 203.720612,442.840759 
	C203.793991,442.458435 203.867355,442.076111 204.148315,441.528809 
	C204.490585,441.501068 204.625259,441.638275 204.961380,441.981812 
z"/>
<path fill="#110404" opacity="1.000000" stroke="none" 
	d="
M158.521759,396.342834 
	C158.128403,396.286743 157.950073,396.058594 157.667480,395.639099 
	C157.550507,395.457764 157.816788,395.190887 157.950836,395.058319 
	C158.402283,395.017090 158.665146,395.190918 158.999786,395.650391 
	C158.992096,395.962616 158.858063,396.071686 158.521759,396.342834 
z"/>
<path fill="#010000" opacity="1.000000" stroke="none" 
	d="
M220.008575,432.060760 
	C219.855301,432.139038 219.472504,432.028809 219.203583,431.708496 
	C219.471313,431.623016 219.625183,431.747650 220.008575,432.060760 
z"/>
<path fill="#831A1B" opacity="1.000000" stroke="none" 
	d="
M168.233032,321.442749 
	C168.370438,321.341125 168.576523,321.459778 168.809448,321.843445 
	C168.712082,321.863586 168.533890,321.715118 168.233032,321.442749 
z"/>
<path fill="#010000" opacity="1.000000" stroke="none" 
	d="
M200.976074,444.906799 
	C201.146988,444.822052 201.584915,444.943207 201.901642,445.292358 
	C201.601318,445.384491 201.422211,445.248627 200.976074,444.906799 
z"/>
<path fill="#080302" opacity="1.000000" stroke="none" 
	d="
M512.815796,486.226440 
	C516.296387,486.868896 519.361755,487.406494 522.427124,487.944092 
	C522.448547,488.285706 522.469971,488.627319 522.491394,488.968933 
	C516.013550,489.717529 509.529572,490.418457 503.061157,491.241394 
	C500.885376,491.518188 498.766541,492.308411 496.589966,492.496033 
	C494.190582,492.702820 491.670349,492.865356 489.357910,492.350433 
	C486.929352,491.809662 484.684631,490.443329 481.057159,488.874512 
	C480.479462,487.447662 480.446320,485.609741 484.663208,485.335297 
	C487.660950,485.140167 490.649780,482.926056 493.526886,483.143524 
	C499.857025,483.621918 506.113861,485.069580 512.815796,486.226440 
z"/>
<path fill="#0E0404" opacity="1.000000" stroke="none" 
	d="
M530.709412,513.115356 
	C531.787659,511.668274 532.643372,510.528809 533.499146,509.389343 
	C533.946899,509.402344 534.394592,509.415344 534.842346,509.428345 
	C535.178223,511.483124 536.358276,513.982666 535.583923,515.452515 
	C534.959412,516.638000 531.988159,516.904785 530.034241,516.982422 
	C528.098328,517.059448 526.132751,516.389954 524.180176,516.047913 
	C524.268005,515.612000 524.355835,515.176147 524.443726,514.740234 
	C526.458130,514.301147 528.472534,513.862061 530.709412,513.115356 
z"/>
<path fill="#010000" opacity="1.000000" stroke="none" 
	d="
M511.589783,372.408508 
	C511.148254,372.254395 510.912903,371.882050 510.677551,371.509674 
	C511.087311,371.468109 511.497070,371.426575 512.056702,371.568542 
	C512.069702,371.898163 511.932831,372.044220 511.589783,372.408508 
z"/>
<path fill="#010000" opacity="1.000000" stroke="none" 
	d="
M497.715302,220.176727 
	C497.871643,220.540894 497.812561,220.873657 497.753479,221.206421 
	C497.668945,220.852722 497.584412,220.499023 497.715302,220.176727 
z"/>
<path fill="#180505" opacity="1.000000" stroke="none" 
	d="
M144.612549,245.295563 
	C144.750015,245.402084 144.769333,245.510590 144.788635,245.619095 
	C144.690552,245.511917 144.592484,245.404724 144.612549,245.295563 
z"/>
<path fill="#841A1B" opacity="1.000000" stroke="none" 
	d="
M219.479645,179.252563 
	C221.116684,173.844299 224.642319,176.588730 227.177979,177.439911 
	C228.563644,177.905060 229.352081,180.149277 230.409836,181.591217 
	C228.027283,182.510223 225.713943,183.793686 223.245880,184.262329 
	C219.598022,184.954926 219.342743,182.259293 219.479645,179.252563 
z"/>
<path fill="#841A1B" opacity="1.000000" stroke="none" 
	d="
M222.249329,202.264389 
	C223.224045,201.902039 224.422501,201.741684 225.620941,201.581329 
	C225.644089,201.300797 225.667236,201.020264 225.690384,200.739716 
	C224.538193,200.389343 223.385986,200.038956 221.926056,199.569092 
	C222.072205,199.250626 222.547501,198.844818 222.976196,198.889206 
	C224.642105,199.061661 226.293198,199.377075 227.949814,199.639282 
	C227.736496,200.830276 227.586365,203.027283 227.299377,203.045319 
	C225.709000,203.145218 224.085327,202.715027 222.249329,202.264389 
z"/>
<path fill="#841A1B" opacity="1.000000" stroke="none" 
	d="
M218.870117,198.466766 
	C214.768921,197.683395 210.536835,196.598938 206.002563,195.321594 
	C212.098511,192.405746 214.735153,193.019867 218.870117,198.466766 
z"/>
<path fill="#861B1B" opacity="1.000000" stroke="none" 
	d="
M217.006836,204.751373 
	C216.138184,205.624969 215.265488,206.247330 214.085571,206.982422 
	C212.814728,205.974075 211.851105,204.852966 211.312897,203.343079 
	C212.004684,202.936920 212.271072,202.919571 212.537460,202.902237 
	C212.680237,202.702927 212.823029,202.503616 213.362457,202.678070 
	C214.837784,203.367096 215.916443,203.682358 216.995117,203.997620 
	C216.997665,204.165115 217.000229,204.332626 217.006836,204.751373 
z"/>
<path fill="#841A1B" opacity="1.000000" stroke="none" 
	d="
M216.996643,203.652252 
	C215.916443,203.682358 214.837784,203.367096 213.500885,202.782104 
	C214.281219,202.042450 215.319794,201.572556 216.681244,201.168503 
	C217.002151,201.925186 217.000153,202.616028 216.996643,203.652252 
z"/>
<path fill="#841A1B" opacity="1.000000" stroke="none" 
	d="
M204.682404,194.725372 
	C204.569595,194.724030 204.210175,194.576981 203.645844,194.216507 
	C203.772537,194.195267 204.104156,194.387466 204.682404,194.725372 
z"/>
<path fill="#010000" opacity="1.000000" stroke="none" 
	d="
M326.516144,168.024994 
	C327.032837,167.910217 327.300232,167.948120 327.969910,168.037659 
	C327.455658,168.795593 326.539154,169.501923 325.276978,170.124268 
	C325.376465,169.419434 325.821655,168.798553 326.516144,168.024994 
z"/>
<path fill="#841A1B" opacity="1.000000" stroke="none" 
	d="
M212.382065,202.691956 
	C212.271072,202.919571 212.004684,202.936920 211.338669,202.983002 
	C211.368256,202.835022 211.797455,202.658356 212.382065,202.691956 
z"/>
</svg>